<svg width="218" height="220" viewBox="0 0 218 220" fill="none" xmlns="http://www.w3.org/2000/svg">
<g filter="url(#filter0_d)">
<path fill-rule="evenodd" clip-rule="evenodd" d="M94.7906 17.1885C85.0171 6.61829 71.0314 0 55.5 0C25.9528 0 2 23.9528 2 53.5C2 83.0472 25.9528 107 55.5 107C71.7567 107 86.3199 99.7491 96.1321 88.305L83.9908 77.8839C77.1132 85.9125 66.9008 91 55.5 91C34.7893 91 18 74.2107 18 53.5C18 32.7893 34.7893 16 55.5 16C66.3105 16 76.0527 20.5745 82.8964 27.8933L94.7906 17.1885Z" fill="#0076FF"/>
<g filter="url(#filter1_d)">
<path fill-rule="evenodd" clip-rule="evenodd" d="M82.8963 27.8933C76.0527 20.5745 66.3106 16 55.5 16C34.7893 16 18 32.7893 18 53.5C18 74.2107 34.7893 91 55.5 91C66.9007 91 77.1131 85.9125 83.9909 77.8838L75.6438 70.7193C70.7834 76.3997 63.5622 80 55.5 80C40.8645 80 29 68.1355 29 53.5C29 38.8645 40.8645 27 55.5 27C63.0649 27 69.8895 30.1699 74.718 35.2538L82.8963 27.8933Z" fill="#ECECEC"/>
</g>
<g filter="url(#filter2_d)">
<path fill-rule="evenodd" clip-rule="evenodd" d="M47.7729 16.7969C30.7694 20.3587 18 35.4381 18 53.5C18 74.2107 34.7893 91 55.5 91C66.9008 91 77.1132 85.9125 83.9908 77.8839L75.6438 70.7192C70.7834 76.3997 63.5621 80 55.5 80C40.8645 80 29 68.1356 29 53.5C29 41.0236 37.6221 30.561 49.2328 27.7455L47.7729 16.7969Z" fill="#B7D8FF"/>
</g>
</g>
<g filter="url(#filter3_d)">
<path fill-rule="evenodd" clip-rule="evenodd" d="M123 1V63.1689V64.566H123.03C123.777 82.0499 138.476 95.9998 156.5 95.9998C174.524 95.9998 189.223 82.0499 189.97 64.566H190V63.1689V1.00008H202V67.0254C202 86.262 181.957 108 156 108C130.043 108 109 86.262 109 67.0254L109 1.00005C114.057 1 118.493 0.999995 123 1Z" fill="#0076FF"/>
</g>
<g filter="url(#filter4_d)">
<path fill-rule="evenodd" clip-rule="evenodd" d="M179.547 1H190V63.1691V64.5662H189.97C189.223 82.0502 174.524 96 156.5 96C138.476 96 123.777 82.0502 123.03 64.5662H123V63.1691V1H133V15.5V57.875V60.5C133 76.7234 143.42 86 156.274 86C169.127 86 179.547 76.7234 179.547 60.5L179.547 57.875V1Z" fill="#B7D8FF"/>
</g>
<g filter="url(#filter5_d)">
<rect x="123" y="1" width="10" height="35" fill="#ECECEC"/>
</g>
<g filter="url(#filter6_d)">
<path d="M24.122 165V132.3H35.172C36.872 132.3 38.4553 132.467 39.922 132.8C41.3886 133.133 42.6553 133.683 43.722 134.45C44.7886 135.183 45.622 136.167 46.222 137.4C46.8553 138.633 47.172 140.167 47.172 142C47.172 144.5 46.572 146.517 45.372 148.05C44.2053 149.583 42.6386 150.683 40.672 151.35L48.472 165H41.972L34.922 152.2H29.922V165H24.122ZM29.922 147.6H34.572C36.8053 147.6 38.5053 147.133 39.672 146.2C40.872 145.267 41.472 143.867 41.472 142C41.472 140.1 40.872 138.783 39.672 138.05C38.5053 137.317 36.8053 136.95 34.572 136.95H29.922V147.6ZM63.4725 165.6C61.7725 165.6 60.1891 165.317 58.7225 164.75C57.2558 164.15 55.9725 163.3 54.8725 162.2C53.7725 161.1 52.9058 159.767 52.2725 158.2C51.6725 156.6 51.3725 154.783 51.3725 152.75C51.3725 150.75 51.6891 148.95 52.3225 147.35C52.9558 145.75 53.7891 144.4 54.8225 143.3C55.8891 142.2 57.1058 141.35 58.4725 140.75C59.8391 140.15 61.2391 139.85 62.6725 139.85C64.3391 139.85 65.8058 140.133 67.0725 140.7C68.3391 141.267 69.3891 142.067 70.2225 143.1C71.0891 144.133 71.7391 145.367 72.1725 146.8C72.6058 148.233 72.8225 149.8 72.8225 151.5C72.8225 152.067 72.7891 152.6 72.7225 153.1C72.6891 153.6 72.6391 154 72.5725 154.3H56.9725C57.2391 156.5 58.0058 158.2 59.2725 159.4C60.5725 160.567 62.2225 161.15 64.2225 161.15C65.2891 161.15 66.2725 161 67.1725 160.7C68.1058 160.367 69.0225 159.917 69.9225 159.35L71.8725 162.95C70.7058 163.717 69.4058 164.35 67.9725 164.85C66.5391 165.35 65.0391 165.6 63.4725 165.6ZM56.9225 150.4H67.8225C67.8225 148.5 67.4058 147.017 66.5725 145.95C65.7725 144.85 64.5225 144.3 62.8225 144.3C61.3558 144.3 60.0725 144.817 58.9725 145.85C57.8725 146.883 57.1891 148.4 56.9225 150.4ZM84.0632 165L75.5132 140.45H81.3632L85.2632 153.2C85.5965 154.4 85.9298 155.617 86.2632 156.85C86.6298 158.083 86.9798 159.333 87.3132 160.6H87.5132C87.8798 159.333 88.2298 158.083 88.5632 156.85C88.8965 155.617 89.2465 154.4 89.6132 153.2L93.5132 140.45H99.0632L90.7132 165H84.0632ZM103.568 165V140.45H109.318V165H103.568ZM106.468 136.15C105.435 136.15 104.585 135.85 103.918 135.25C103.251 134.65 102.918 133.867 102.918 132.9C102.918 131.933 103.251 131.15 103.918 130.55C104.585 129.917 105.435 129.6 106.468 129.6C107.501 129.6 108.351 129.917 109.018 130.55C109.685 131.15 110.018 131.933 110.018 132.9C110.018 133.867 109.685 134.65 109.018 135.25C108.351 135.85 107.501 136.15 106.468 136.15ZM127.403 165.6C125.703 165.6 124.12 165.317 122.653 164.75C121.186 164.15 119.903 163.3 118.803 162.2C117.703 161.1 116.836 159.767 116.203 158.2C115.603 156.6 115.303 154.783 115.303 152.75C115.303 150.75 115.62 148.95 116.253 147.35C116.886 145.75 117.72 144.4 118.753 143.3C119.82 142.2 121.036 141.35 122.403 140.75C123.77 140.15 125.17 139.85 126.603 139.85C128.27 139.85 129.736 140.133 131.003 140.7C132.27 141.267 133.32 142.067 134.153 143.1C135.02 144.133 135.67 145.367 136.103 146.8C136.536 148.233 136.753 149.8 136.753 151.5C136.753 152.067 136.72 152.6 136.653 153.1C136.62 153.6 136.57 154 136.503 154.3H120.903C121.17 156.5 121.936 158.2 123.203 159.4C124.503 160.567 126.153 161.15 128.153 161.15C129.22 161.15 130.203 161 131.103 160.7C132.036 160.367 132.953 159.917 133.853 159.35L135.803 162.95C134.636 163.717 133.336 164.35 131.903 164.85C130.47 165.35 128.97 165.6 127.403 165.6ZM120.853 150.4H131.753C131.753 148.5 131.336 147.017 130.503 145.95C129.703 144.85 128.453 144.3 126.753 144.3C125.286 144.3 124.003 144.817 122.903 145.85C121.803 146.883 121.12 148.4 120.853 150.4ZM146.544 165L140.044 140.45H145.844L148.794 153.2C149.06 154.367 149.277 155.533 149.444 156.7C149.644 157.867 149.86 159.05 150.094 160.25H150.294C150.527 159.05 150.76 157.867 150.994 156.7C151.26 155.533 151.544 154.367 151.844 153.2L155.044 140.45H160.294L163.544 153.2C163.844 154.367 164.127 155.533 164.394 156.7C164.66 157.867 164.927 159.05 165.194 160.25H165.394C165.627 159.05 165.844 157.867 166.044 156.7C166.244 155.533 166.46 154.367 166.694 153.2L169.644 140.45H175.044L168.794 165H161.944L159.094 153.55C158.827 152.383 158.577 151.233 158.344 150.1C158.11 148.933 157.86 147.7 157.594 146.4H157.394C157.16 147.7 156.927 148.933 156.694 150.1C156.46 151.267 156.21 152.433 155.944 153.6L153.144 165H146.544ZM186.995 165.6C185.295 165.6 183.612 165.283 181.945 164.65C180.312 163.983 178.895 163.167 177.695 162.2L180.395 158.5C181.495 159.367 182.578 160.05 183.645 160.55C184.745 161.017 185.928 161.25 187.195 161.25C188.528 161.25 189.512 160.983 190.145 160.45C190.778 159.883 191.095 159.167 191.095 158.3C191.095 157.8 190.945 157.367 190.645 157C190.345 156.6 189.945 156.25 189.445 155.95C188.945 155.65 188.378 155.383 187.745 155.15C187.112 154.883 186.478 154.617 185.845 154.35C185.045 154.05 184.228 153.7 183.395 153.3C182.562 152.9 181.812 152.417 181.145 151.85C180.512 151.283 179.978 150.633 179.545 149.9C179.145 149.133 178.945 148.233 178.945 147.2C178.945 145.033 179.745 143.267 181.345 141.9C182.945 140.533 185.128 139.85 187.895 139.85C189.595 139.85 191.128 140.15 192.495 140.75C193.862 141.35 195.045 142.033 196.045 142.8L193.395 146.3C192.528 145.667 191.645 145.167 190.745 144.8C189.878 144.4 188.962 144.2 187.995 144.2C186.762 144.2 185.845 144.467 185.245 145C184.678 145.5 184.395 146.133 184.395 146.9C184.395 147.4 184.528 147.833 184.795 148.2C185.095 148.533 185.478 148.833 185.945 149.1C186.412 149.367 186.945 149.617 187.545 149.85C188.178 150.083 188.828 150.317 189.495 150.55C190.328 150.85 191.162 151.2 191.995 151.6C192.828 151.967 193.578 152.433 194.245 153C194.945 153.567 195.495 154.267 195.895 155.1C196.328 155.9 196.545 156.867 196.545 158C196.545 159.067 196.328 160.067 195.895 161C195.495 161.9 194.895 162.7 194.095 163.4C193.295 164.067 192.295 164.6 191.095 165C189.895 165.4 188.528 165.6 186.995 165.6Z" fill="#0076FF"/>
</g>
<defs>
<filter id="filter0_d" x="0" y="0" width="98.1321" height="111" filterUnits="userSpaceOnUse" color-interpolation-filters="sRGB">
<feFlood flood-opacity="0" result="BackgroundImageFix"/>
<feColorMatrix in="SourceAlpha" type="matrix" values="0 0 0 0 0 0 0 0 0 0 0 0 0 0 0 0 0 0 127 0"/>
<feOffset dy="2"/>
<feGaussianBlur stdDeviation="1"/>
<feColorMatrix type="matrix" values="0 0 0 0 0 0 0 0 0 0 0 0 0 0 0 0 0 0 0.1 0"/>
<feBlend mode="normal" in2="BackgroundImageFix" result="effect1_dropShadow"/>
<feBlend mode="normal" in="SourceGraphic" in2="effect1_dropShadow" result="shape"/>
</filter>
<filter id="filter1_d" x="16" y="16" width="69.9909" height="79" filterUnits="userSpaceOnUse" color-interpolation-filters="sRGB">
<feFlood flood-opacity="0" result="BackgroundImageFix"/>
<feColorMatrix in="SourceAlpha" type="matrix" values="0 0 0 0 0 0 0 0 0 0 0 0 0 0 0 0 0 0 127 0"/>
<feOffset dy="2"/>
<feGaussianBlur stdDeviation="1"/>
<feColorMatrix type="matrix" values="0 0 0 0 0 0 0 0 0 0 0 0 0 0 0 0 0 0 0.1 0"/>
<feBlend mode="normal" in2="BackgroundImageFix" result="effect1_dropShadow"/>
<feBlend mode="normal" in="SourceGraphic" in2="effect1_dropShadow" result="shape"/>
</filter>
<filter id="filter2_d" x="16" y="16.7969" width="69.9908" height="78.2031" filterUnits="userSpaceOnUse" color-interpolation-filters="sRGB">
<feFlood flood-opacity="0" result="BackgroundImageFix"/>
<feColorMatrix in="SourceAlpha" type="matrix" values="0 0 0 0 0 0 0 0 0 0 0 0 0 0 0 0 0 0 127 0"/>
<feOffset dy="2"/>
<feGaussianBlur stdDeviation="1"/>
<feColorMatrix type="matrix" values="0 0 0 0 0 0 0 0 0 0 0 0 0 0 0 0 0 0 0.1 0"/>
<feBlend mode="normal" in2="BackgroundImageFix" result="effect1_dropShadow"/>
<feBlend mode="normal" in="SourceGraphic" in2="effect1_dropShadow" result="shape"/>
</filter>
<filter id="filter3_d" x="107" y="1" width="97.0001" height="111" filterUnits="userSpaceOnUse" color-interpolation-filters="sRGB">
<feFlood flood-opacity="0" result="BackgroundImageFix"/>
<feColorMatrix in="SourceAlpha" type="matrix" values="0 0 0 0 0 0 0 0 0 0 0 0 0 0 0 0 0 0 127 0"/>
<feOffset dy="2"/>
<feGaussianBlur stdDeviation="1"/>
<feColorMatrix type="matrix" values="0 0 0 0 0 0 0 0 0 0 0 0 0 0 0 0 0 0 0.1 0"/>
<feBlend mode="normal" in2="BackgroundImageFix" result="effect1_dropShadow"/>
<feBlend mode="normal" in="SourceGraphic" in2="effect1_dropShadow" result="shape"/>
</filter>
<filter id="filter4_d" x="123" y="1" width="71" height="99" filterUnits="userSpaceOnUse" color-interpolation-filters="sRGB">
<feFlood flood-opacity="0" result="BackgroundImageFix"/>
<feColorMatrix in="SourceAlpha" type="matrix" values="0 0 0 0 0 0 0 0 0 0 0 0 0 0 0 0 0 0 127 0"/>
<feOffset dx="2" dy="2"/>
<feGaussianBlur stdDeviation="1"/>
<feColorMatrix type="matrix" values="0 0 0 0 0 0 0 0 0 0 0 0 0 0 0 0 0 0 0.2 0"/>
<feBlend mode="normal" in2="BackgroundImageFix" result="effect1_dropShadow"/>
<feBlend mode="normal" in="SourceGraphic" in2="effect1_dropShadow" result="shape"/>
</filter>
<filter id="filter5_d" x="121" y="1" width="14" height="39" filterUnits="userSpaceOnUse" color-interpolation-filters="sRGB">
<feFlood flood-opacity="0" result="BackgroundImageFix"/>
<feColorMatrix in="SourceAlpha" type="matrix" values="0 0 0 0 0 0 0 0 0 0 0 0 0 0 0 0 0 0 127 0"/>
<feOffset dy="2"/>
<feGaussianBlur stdDeviation="1"/>
<feColorMatrix type="matrix" values="0 0 0 0 0 0 0 0 0 0 0 0 0 0 0 0 0 0 0.1 0"/>
<feBlend mode="normal" in2="BackgroundImageFix" result="effect1_dropShadow"/>
<feBlend mode="normal" in="SourceGraphic" in2="effect1_dropShadow" result="shape"/>
</filter>
<filter id="filter6_d" x="22.1221" y="129.6" width="176.423" height="40" filterUnits="userSpaceOnUse" color-interpolation-filters="sRGB">
<feFlood flood-opacity="0" result="BackgroundImageFix"/>
<feColorMatrix in="SourceAlpha" type="matrix" values="0 0 0 0 0 0 0 0 0 0 0 0 0 0 0 0 0 0 127 0"/>
<feOffset dy="2"/>
<feGaussianBlur stdDeviation="1"/>
<feColorMatrix type="matrix" values="0 0 0 0 0 0 0 0 0 0 0 0 0 0 0 0 0 0 0.1 0"/>
<feBlend mode="normal" in2="BackgroundImageFix" result="effect1_dropShadow"/>
<feBlend mode="normal" in="SourceGraphic" in2="effect1_dropShadow" result="shape"/>
</filter>
</defs>
</svg>
