<?xml version="1.0" encoding="utf-8"?>
<!-- Generator: Adobe Illustrator 21.1.0, SVG Export Plug-In . SVG Version: 6.00 Build 0)  -->
<svg version="1.1" xmlns="http://www.w3.org/2000/svg" xmlns:xlink="http://www.w3.org/1999/xlink" x="0px" y="0px"
	 viewBox="0 0 800 800" style="enable-background:new 0 0 800 800;" xml:space="preserve">
<style type="text/css">
	.st0{fill:none;stroke:#FF324A;stroke-width:64;}
	.st1{fill:#6F6F6F;}
	.st2{fill:none;stroke:#FF324A;stroke-width:80;}
	.st3{opacity:0.8;fill:none;stroke:#0F0103;stroke-width:80;enable-background:new    ;}
	.st4{opacity:0.8;}
</style>
<g id="圖層_2">
	<path id="Outlined-C" class="st0" d="M567.9,621.8c0,0,21.1-16.8,23.7-19.2l-7.6-12c-4.3,4-26.1,21.1-26.1,21.1
		C513.2,643.5,459.5,661,403,661c-148,0-268-120-268-268s120-268,268-268c60.3,0,117.3,19.9,163.6,55.7c0,0,20.8,17.8,24.4,21.3
		l9.5-10.3c-3.1-3.1-23.9-20.9-23.9-20.9C527.6,132.4,467,111,403,111c-155.7,0-282,126.3-282,282s126.3,282,282,282
		C463.2,675,520.5,656,567.9,621.8z"/>
	<polygon class="st1" points="505.2,401.6 513.7,393.1 510.9,390.3 502.4,398.8 474.1,370.5 482.6,362 479.7,359.2 471.3,367.7 
		443,339.4 451.5,330.9 448.6,328.1 440.1,336.6 411.9,308.3 440.1,280 561.8,401.6 533.5,429.9 	"/>
	
		<rect x="397.9" y="241.2" transform="matrix(0.7071 -0.7071 0.7071 0.7071 -65.2354 364.9269)" class="st1" width="20" height="40"/>
	
		<rect x="262" y="309.1" transform="matrix(0.7071 -0.7071 0.7071 0.7071 -133.1348 336.8163)" class="st1" width="156" height="40"/>
	<path class="st1" d="M400.9,366c11,0,20,9,20,20v140c0,11-9,20-20,20s-20-9-20-20V386C380.9,375,389.8,366,400.9,366z"/>
	<polygon class="st1" points="258,411.1 265.1,375.8 293.4,404 	"/>
	<path class="st2" d="M613.6,577.6c-51.1,56.2-125.2,91.6-207.7,91.6c-154,0-278.9-123.3-278.9-275.3s124.9-275.3,278.9-275.3
		c86.2,0,163.3,38.6,214.5,99.3"/>
	<path class="st3" d="M684.8,393.8"/>
</g>
<g id="masks">
	
		<rect id="end-ruler" x="421.4" y="272.1" transform="matrix(0.7071 0.7071 -0.7071 0.7071 330.7289 -214.2576)" width="5.2" height="40"/>
	
		<rect id="start-ruler" x="395.9" y="333.3" transform="matrix(0.7071 0.7071 -0.7071 0.7071 391.8628 -239.5801)" width="178.5" height="40"/>
	
		<rect id="end-pencil" x="414.7" y="232.7" transform="matrix(0.7071 -0.7071 0.7071 0.7071 -56.6865 368.4822)" width="3.5" height="40"/>
	
		<rect id="start-pencil_1_" x="225.3" y="311.1" transform="matrix(0.7071 -0.7071 0.7071 0.7071 -135.1013 335.9875)" width="225.4" height="40"/>
	<rect id="end" x="380.9" y="546" class="st4" width="40" height="4.8"/>
	<rect id="start_1_" x="380.9" y="366" class="st4" width="40" height="184.8"/>
</g>
</svg>
