<?xml version="1.0" standalone="no"?>
<!DOCTYPE svg PUBLIC "-//W3C//DTD SVG 20010904//EN"
 "http://www.w3.org/TR/2001/REC-SVG-20010904/DTD/svg10.dtd">
<svg version="1.0" xmlns="http://www.w3.org/2000/svg"
 width="1000.000000pt" height="1000.000000pt" viewBox="0 0 1000.000000 1000.000000"
 preserveAspectRatio="xMidYMid meet">
<metadata>
Created by potrace 1.11, written by Peter Selinger 2001-2013
</metadata>
<g transform="translate(0.000000,1000.000000) scale(0.100000,-0.100000)"
fill="#000000" stroke="none">
<path d="M1865 8993 c-92 -13 -253 -66 -335 -111 -231 -127 -428 -367 -485
-592 -1 -3 -4 -12 -8 -20 -3 -8 -13 -49 -21 -90 -13 -66 -15 -442 -15 -3180 0
-3056 1 -3107 20 -3200 47 -222 176 -435 348 -573 121 -97 242 -158 396 -198
l90 -24 3125 0 c1719 0 3146 3 3171 7 208 31 404 132 560 289 146 148 232 314
274 532 12 61 14 551 12 3197 l-2 3125 -22 80 c-99 353 -337 609 -665 715
-159 51 34 48 -3303 48 -1710 -1 -3123 -3 -3140 -5z"/>
</g>
</svg>
