<?xml version="1.0" encoding="UTF-8"?>
<svg width="1520px" height="365px" viewBox="0 0 1520 365" version="1.1" xmlns="http://www.w3.org/2000/svg" xmlns:xlink="http://www.w3.org/1999/xlink" preserveAspectRatio="none">
    <!-- Generator: Sketch 52.5 (67469) - http://www.bohemiancoding.com/sketch -->
    <title>Line 2</title>
    <desc>Created with Sketch.</desc>
    <g id="Page:-Home" stroke="none" stroke-width="1" fill="none" fill-rule="evenodd">
        <g id="Blue-Background-(1)" transform="translate(0.000000, -659.000000)" fill="#000000" fill-rule="nonzero">
            <polygon id="Line-2" points="1489.65446 899.828331 1489.65446 894.351143 1485.22544 891.612548 1482.26342 894.351143 1482.26342 899.828331 1306.438 903.890966 1306.438 912.067233 1285.61113 912.067233 1285.61113 908.044114 1268.28308 908.044114 1268.28308 912.067233 1258.93352 912.067233 1258.93352 944.558705 1190.67978 946.163485 1190.67978 935.044404 1182.23672 931.778598 1180.21569 935.044404 1180.21569 958.106517 1174.45764 958.106517 1174.45764 930.865733 1136.12918 930.865733 1134.32049 933.604327 1131.0987 933.604327 1129.58882 930.865733 1118.7537 930.865733 1116.32415 905.30552 1108.2314 905.30552 1105.63694 924.47568 1089.59695 924.47568 1089.59695 937.255787 1072.15895 937.255787 1042.67992 897.532486 947.190228 905.30552 945.533521 897.532486 933.960287 897.532486 931.802364 905.30552 915.486442 905.30552 913.275704 887.906519 900.594405 887.906519 898.395523 905.30552 844.886156 905.30552 843.316758 910.654342 792.57324 910.654342 778.948793 930.865733 731.043342 930.865733 731.043342 908.044114 711.359035 844.14358 708.165912 844.14358 708.165912 837.61194 716.250016 834.5585 703.160411 799.559464 702.441057 785.530614 699.610569 785.530614 699.610569 799.559464 689.132172 834.5585 697.095824 837.61194 697.095824 844.14358 694.245198 844.14358 675.009568 908.044114 675.009568 924.47568 641.351875 924.47568 641.351875 892.525413 629.111673 863.31374 607.888729 863.31374 595.64308 892.525413 595.64308 919.911356 569.145868 919.911356 569.145868 914.588142 559.820778 913.521303 558.79084 905.30552 557.121788 905.30552 555.980666 899.828331 553.776907 899.828331 553.776907 892.525413 550.996981 892.525413 550.996981 883.508743 549.572403 883.508743 549.572403 877.242232 544.232504 877.242232 544.232504 883.508743 542.588761 883.508743 542.588761 892.525413 540.097192 892.525413 540.097192 899.828331 538.038188 899.828331 536.757798 905.30552 535.327728 905.30552 535.327728 919.911356 531.725225 919.911356 531.725225 921.74846 525.922769 921.74846 525.922769 929.040004 522.131713 929.040004 522.131713 950.035893 508.335123 950.948758 508.335123 944.558705 500.06329 944.558705 497.05781 939.932001 487.834029 937.255787 491.280958 944.558705 484.06922 955.513082 463.204479 955.513082 463.204479 950.035893 446.626487 942.732975 446.626487 919.911356 441.475544 919.911356 441.475544 908.044114 432.266736 905.30552 419.558368 905.30552 419.558368 924.47568 413.140726 919.911356 385.270801 931.778598 376.408527 930.865733 376.408527 926.301409 373.528491 924.47568 376.408527 881.571036 317.06787 881.571036 273.186458 823.105372 230.842298 825.886285 214.513418 825.886285 214.513418 829.470321 193.194869 829.470321 193.194869 722.732567 161.852015 659 127.189512 722.732567 127.189512 834.5585 85.8488427 835.014933 84.3728802 824.347329 70.5471795 823.105372 69.1754926 831.860613 58.4564977 831.362136 56.8034897 825.681373 46.2259596 824.347329 46.2259596 834.967464 36.8284734 835.014933 36.8284734 831.362136 23.1175512 830.877136 0 834.5585 0 1030 1519.55515 1031 1519.55515 900.741196"></polygon>
        </g>
    </g>
</svg>