<svg width="18" height="18" viewBox="0 0 18 18" fill="none" xmlns="http://www.w3.org/2000/svg">
<g id="ic:round-check">
<path id="Vector" d="M0.985053 9.64704L0.985053 9.64704C0.735359 9.91735 0.6 10.2776 0.6 10.6473C0.6 10.831 0.633387 11.0135 0.698891 11.1847C0.764406 11.3559 0.861164 11.5135 0.985053 11.6476L4.97693 15.969C5.50774 16.5437 6.3803 16.5437 6.91112 15.969L17.0149 5.03103C17.2646 4.76072 17.4 4.40043 17.4 4.03076C17.4 3.66109 17.2646 3.30079 17.0149 3.03049C16.7643 2.75911 16.4172 2.6 16.0479 2.6C15.6786 2.6 15.3316 2.75905 15.0809 3.03034C15.0808 3.03039 15.0808 3.03044 15.0808 3.03048L5.93939 12.9165L2.91924 9.64704L2.62542 9.91846L2.91924 9.64704C2.66856 9.37566 2.32146 9.21655 1.95215 9.21655C1.58284 9.21655 1.23573 9.37566 0.985053 9.64704Z" fill="white" stroke="white" stroke-width="0.8"/>
</g>
</svg>
