<svg width="19" height="20" viewBox="0 0 19 20" fill="none" xmlns="http://www.w3.org/2000/svg">
<path id="Vector" d="M1.5 5H17.5M7.5 9V15M11.5 9V15M2.5 5L3.5 17C3.5 17.5304 3.71071 18.0391 4.08579 18.4142C4.46086 18.7893 4.96957 19 5.5 19H13.5C14.0304 19 14.5391 18.7893 14.9142 18.4142C15.2893 18.0391 15.5 17.5304 15.5 17L16.5 5M6.5 5V2C6.5 1.73478 6.60536 1.48043 6.79289 1.29289C6.98043 1.10536 7.23478 1 7.5 1H11.5C11.7652 1 12.0196 1.10536 12.2071 1.29289C12.3946 1.48043 12.5 1.73478 12.5 2V5" stroke="white" stroke-width="2" stroke-linecap="round" stroke-linejoin="round"/>
</svg>
