<svg width="19" height="19" viewBox="0 0 19 19" fill="none" xmlns="http://www.w3.org/2000/svg">
<path id="Vector" d="M11.0894 1.36558L12.7534 4.72116C12.9804 5.18827 13.5855 5.63631 14.096 5.72211L17.1121 6.22735C19.0408 6.55147 19.4947 7.96233 18.1048 9.35413L15.76 11.7183C15.3629 12.1187 15.1455 12.8908 15.2684 13.4437L15.9397 16.3703C16.4691 18.6868 15.2495 19.5829 13.2167 18.3722L10.3898 16.6849C9.8792 16.3799 9.03772 16.3799 8.51771 16.6849L5.69074 18.3722C3.66743 19.5829 2.43831 18.6773 2.96778 16.3703L3.63907 13.4437C3.76198 12.8908 3.54452 12.1187 3.14742 11.7183L0.802644 9.35413C-0.577749 7.96233 -0.133375 6.55147 1.79539 6.22735L4.81145 5.72211C5.31255 5.63631 5.91766 5.18827 6.14457 4.72116L7.80861 1.36558C8.71626 -0.455195 10.1912 -0.455195 11.0894 1.36558Z" fill="#E8E8E8"/>
</svg>
