<svg width="19" height="19" viewBox="0 0 19 19" fill="none" xmlns="http://www.w3.org/2000/svg">
<g id="Vector">
<path fill-rule="evenodd" clip-rule="evenodd" d="M8.51771 16.6849C8.83831 16.4968 9.2811 16.4247 9.6932 16.4685V0.0249517C9.02171 -0.114743 8.32378 0.332134 7.80861 1.36558L6.14457 4.72116C5.91766 5.18827 5.31255 5.63631 4.81145 5.72211L1.79539 6.22735C-0.133375 6.55147 -0.577749 7.96233 0.802644 9.35413L3.14742 11.7183C3.54452 12.1187 3.76198 12.8908 3.63907 13.4437L2.96778 16.3703C2.43831 18.6773 3.66743 19.5829 5.69074 18.3722L8.51771 16.6849Z" fill="#FF756C"/>
<path d="M12.7534 4.72116L11.0894 1.36558C10.701 0.578255 10.2048 0.131378 9.6932 0.0249517V16.4685C9.94952 16.4958 10.194 16.5679 10.3898 16.6849L13.2167 18.3722C15.2495 19.5829 16.4691 18.6868 15.9397 16.3703L15.2684 13.4437C15.1455 12.8908 15.3629 12.1187 15.76 11.7183L18.1048 9.35413C19.4947 7.96233 19.0408 6.55147 17.1121 6.22735L14.096 5.72211C13.5855 5.63631 12.9803 5.18827 12.7534 4.72116Z" fill="#E8E8E8"/>
</g>
</svg>
