<svg width="290" height="254" viewBox="0 0 290 254" fill="none" xmlns="http://www.w3.org/2000/svg">
<path fill-rule="evenodd" clip-rule="evenodd" d="M241.258 253.443C271.159 226.882 290 188.141 290 145C290 64.9187 225.081 0 145 0C64.9187 0 0 64.9187 0 145C0 188.141 18.8405 226.882 48.7424 253.443L78.546 231.09C52.8178 211.201 36.25 180.036 36.25 145C36.25 84.939 84.939 36.25 145 36.25C205.061 36.25 253.75 84.939 253.75 145C253.75 180.036 237.182 211.201 211.454 231.09L241.258 253.443Z" fill="#ECECEC"/>
<path fill-rule="evenodd" clip-rule="evenodd" d="M283.589 187.77C287.756 174.25 290 159.887 290 145C290 64.9187 225.081 0 145 0C64.9187 0 0 64.9187 0 145C0 188.141 18.8405 226.882 48.7424 253.443L78.546 231.09C52.8178 211.201 36.25 180.036 36.25 145C36.25 84.939 84.939 36.25 145 36.25C205.061 36.25 253.75 84.939 253.75 145C253.75 151.528 253.175 157.921 252.072 164.132L283.589 187.77Z" fill="#E64558"/>
<path d="M87.28 112.776C85.152 112.776 83.304 113.205 81.736 114.064C80.2053 114.923 78.9547 116.08 77.984 117.536C77.0133 118.955 76.2853 120.579 75.8 122.408C75.352 124.237 75.128 126.104 75.128 128.008C75.128 129.912 75.352 131.779 75.8 133.608C76.2853 135.437 77.0133 137.08 77.984 138.536C78.9547 139.955 80.2053 141.093 81.736 141.952C83.304 142.811 85.152 143.24 87.28 143.24C89.408 143.24 91.2373 142.811 92.768 141.952C94.336 141.093 95.6053 139.955 96.576 138.536C97.5467 137.08 98.256 135.437 98.704 133.608C99.1893 131.779 99.432 129.912 99.432 128.008C99.432 126.104 99.1893 124.237 98.704 122.408C98.256 120.579 97.5467 118.955 96.576 117.536C95.6053 116.08 94.336 114.923 92.768 114.064C91.2373 113.205 89.408 112.776 87.28 112.776ZM87.28 107.064C90.2667 107.064 92.936 107.624 95.288 108.744C97.6773 109.864 99.6933 111.376 101.336 113.28C102.979 115.184 104.229 117.405 105.088 119.944C105.984 122.483 106.432 125.171 106.432 128.008C106.432 130.883 105.984 133.589 105.088 136.128C104.229 138.667 102.979 140.888 101.336 142.792C99.6933 144.696 97.6773 146.208 95.288 147.328C92.936 148.411 90.2667 148.952 87.28 148.952C84.2933 148.952 81.6053 148.411 79.216 147.328C76.864 146.208 74.8667 144.696 73.224 142.792C71.5813 140.888 70.312 138.667 69.416 136.128C68.5573 133.589 68.128 130.883 68.128 128.008C68.128 125.171 68.5573 122.483 69.416 119.944C70.312 117.405 71.5813 115.184 73.224 113.28C74.8667 111.376 76.864 109.864 79.216 108.744C81.6053 107.624 84.2933 107.064 87.28 107.064ZM125.545 148.784C123.23 148.784 121.158 148.411 119.329 147.664C117.537 146.88 116.006 145.816 114.737 144.472C113.505 143.128 112.553 141.523 111.881 139.656C111.246 137.789 110.929 135.736 110.929 133.496C110.929 131.293 111.246 129.259 111.881 127.392C112.553 125.525 113.505 123.92 114.737 122.576C116.006 121.232 117.537 120.187 119.329 119.44C121.158 118.656 123.23 118.264 125.545 118.264C127.859 118.264 129.913 118.656 131.705 119.44C133.534 120.187 135.065 121.232 136.297 122.576C137.566 123.92 138.518 125.525 139.153 127.392C139.825 129.259 140.161 131.293 140.161 133.496C140.161 135.736 139.825 137.789 139.153 139.656C138.518 141.523 137.566 143.128 136.297 144.472C135.065 145.816 133.534 146.88 131.705 147.664C129.913 148.411 127.859 148.784 125.545 148.784ZM125.545 143.744C126.963 143.744 128.195 143.445 129.241 142.848C130.286 142.251 131.145 141.467 131.817 140.496C132.489 139.525 132.974 138.443 133.273 137.248C133.609 136.016 133.777 134.765 133.777 133.496C133.777 132.264 133.609 131.032 133.273 129.8C132.974 128.568 132.489 127.485 131.817 126.552C131.145 125.581 130.286 124.797 129.241 124.2C128.195 123.603 126.963 123.304 125.545 123.304C124.126 123.304 122.894 123.603 121.849 124.2C120.803 124.797 119.945 125.581 119.273 126.552C118.601 127.485 118.097 128.568 117.761 129.8C117.462 131.032 117.313 132.264 117.313 133.496C117.313 134.765 117.462 136.016 117.761 137.248C118.097 138.443 118.601 139.525 119.273 140.496C119.945 141.467 120.803 142.251 121.849 142.848C122.894 143.445 124.126 143.744 125.545 143.744ZM146.002 119.048H152.05V122.968H152.162C153.058 121.288 154.308 120.093 155.914 119.384C157.519 118.637 159.255 118.264 161.122 118.264C163.399 118.264 165.378 118.675 167.058 119.496C168.775 120.28 170.194 121.381 171.314 122.8C172.434 124.181 173.274 125.805 173.834 127.672C174.394 129.539 174.674 131.536 174.674 133.664C174.674 135.605 174.412 137.491 173.89 139.32C173.404 141.149 172.639 142.773 171.594 144.192C170.586 145.573 169.298 146.693 167.73 147.552C166.162 148.373 164.314 148.784 162.186 148.784C161.252 148.784 160.319 148.691 159.386 148.504C158.452 148.355 157.556 148.093 156.698 147.72C155.839 147.347 155.036 146.88 154.29 146.32C153.58 145.723 152.983 145.032 152.498 144.248H152.386V158.696H146.002V119.048ZM168.29 133.552C168.29 132.245 168.122 130.976 167.786 129.744C167.45 128.512 166.946 127.429 166.274 126.496C165.602 125.525 164.762 124.76 163.754 124.2C162.746 123.603 161.588 123.304 160.282 123.304C157.594 123.304 155.559 124.237 154.178 126.104C152.834 127.971 152.162 130.453 152.162 133.552C152.162 135.008 152.33 136.371 152.666 137.64C153.039 138.872 153.58 139.936 154.29 140.832C154.999 141.728 155.839 142.437 156.81 142.96C157.818 143.483 158.975 143.744 160.282 143.744C161.738 143.744 162.97 143.445 163.978 142.848C164.986 142.251 165.807 141.485 166.442 140.552C167.114 139.581 167.58 138.499 167.842 137.304C168.14 136.072 168.29 134.821 168.29 133.552ZM185.25 138.704C185.436 140.571 186.146 141.877 187.378 142.624C188.61 143.371 190.084 143.744 191.802 143.744C192.399 143.744 193.071 143.707 193.818 143.632C194.602 143.52 195.33 143.333 196.002 143.072C196.674 142.811 197.215 142.437 197.626 141.952C198.074 141.429 198.279 140.757 198.242 139.936C198.204 139.115 197.906 138.443 197.346 137.92C196.786 137.397 196.058 136.987 195.162 136.688C194.303 136.352 193.314 136.072 192.194 135.848C191.074 135.624 189.935 135.381 188.778 135.12C187.583 134.859 186.426 134.541 185.306 134.168C184.223 133.795 183.234 133.291 182.338 132.656C181.479 132.021 180.788 131.219 180.266 130.248C179.743 129.24 179.482 128.008 179.482 126.552C179.482 124.984 179.855 123.677 180.602 122.632C181.386 121.549 182.356 120.691 183.514 120.056C184.708 119.384 186.015 118.917 187.434 118.656C188.89 118.395 190.271 118.264 191.578 118.264C193.071 118.264 194.49 118.432 195.834 118.768C197.215 119.067 198.447 119.571 199.53 120.28C200.65 120.989 201.564 121.923 202.274 123.08C203.02 124.2 203.487 125.563 203.674 127.168H197.01C196.711 125.637 196.002 124.611 194.882 124.088C193.799 123.565 192.548 123.304 191.13 123.304C190.682 123.304 190.14 123.341 189.506 123.416C188.908 123.491 188.33 123.64 187.77 123.864C187.247 124.051 186.799 124.349 186.426 124.76C186.052 125.133 185.866 125.637 185.866 126.272C185.866 127.056 186.127 127.691 186.65 128.176C187.21 128.661 187.919 129.072 188.778 129.408C189.674 129.707 190.682 129.968 191.802 130.192C192.922 130.416 194.079 130.659 195.274 130.92C196.431 131.181 197.57 131.499 198.69 131.872C199.81 132.245 200.799 132.749 201.658 133.384C202.554 134.019 203.263 134.821 203.786 135.792C204.346 136.763 204.626 137.957 204.626 139.376C204.626 141.093 204.234 142.549 203.45 143.744C202.666 144.939 201.639 145.909 200.37 146.656C199.138 147.403 197.756 147.944 196.226 148.28C194.695 148.616 193.183 148.784 191.69 148.784C189.86 148.784 188.162 148.579 186.594 148.168C185.063 147.757 183.719 147.141 182.562 146.32C181.442 145.461 180.546 144.416 179.874 143.184C179.239 141.915 178.903 140.421 178.866 138.704H185.25ZM210.51 141H218.014V148H210.51V141ZM210.79 108.016H217.79V119.552L215.942 136.856H212.638L210.79 119.552V108.016Z" fill="#E64558"/>
</svg>
