<svg width="13" height="13" viewBox="0 0 13 13" fill="none" xmlns="http://www.w3.org/2000/svg">
<path d="M0.456643 5.98626C0.60224 5.88618 0.774605 5.81806 0.956826 5.78606C0.944792 5.76714 0.933562 5.74788 0.92295 5.72834L0.80886 5.62929C0.369464 5.24776 0.323318 4.64722 0.701593 4.23228C0.880166 4.03644 1.12805 3.90628 1.40338 3.8577C1.38371 3.82627 1.36628 3.79415 1.35045 3.76153C1.05121 3.38518 1.05609 2.87937 1.3875 2.51581C1.56612 2.31984 1.81411 2.18928 2.08957 2.14078C1.86215 1.77772 1.89119 1.32523 2.19499 0.992068C2.42468 0.740112 2.76871 0.595562 3.13893 0.595562C3.43538 0.595562 3.71506 0.687541 3.93452 0.85595C3.96773 0.692272 4.04648 0.534187 4.17199 0.396506C4.40173 0.144551 4.74575 4.11356e-05 5.11597 0C5.43768 0 5.73967 0.108392 5.96629 0.305144L8.84885 2.80784L8.85984 2.47382C8.86491 1.90491 9.39958 1.44341 10.056 1.44341C10.7006 1.44341 11.2277 1.88829 11.2514 2.44292L11.8268 6.07545L12.2998 6.55278C12.5833 6.83896 12.5643 7.27188 12.2565 7.53848L11.5535 8.14778C11.7702 8.43083 11.7323 8.81689 11.449 9.06222L8.1482 11.9235C7.99047 12.0601 7.78111 12.1353 7.55852 12.1353C7.37578 12.1353 7.19521 12.082 7.05018 11.9853L6.3611 11.5259C5.69822 11.39 4.96739 11.0811 4.18762 10.6074C3.50673 10.1936 2.76804 9.64232 1.99221 8.96868L0.351413 7.54411C0.109447 7.33403 -0.017909 7.04275 0.00199032 6.74497C0.0218897 6.44768 0.187575 6.17117 0.456643 5.98626ZM3.58728 1.2497C3.46395 1.14267 3.30149 1.08915 3.13898 1.08915C2.95349 1.08915 2.76795 1.15887 2.64078 1.29836C2.43914 1.51955 2.47448 1.84053 2.70422 2.03996L2.99688 2.29401C3.04199 2.32013 3.08591 2.34806 3.12704 2.3797C3.16025 2.21598 3.23904 2.05789 3.36455 1.92025C3.51886 1.75102 3.72482 1.63053 3.9556 1.56949L3.58728 1.2497ZM5.56427 0.65418C5.44099 0.547145 5.27848 0.493628 5.11597 0.493628C4.93043 0.493669 4.74494 0.563394 4.61778 0.702885C4.41613 0.924071 4.45148 1.24501 4.68122 1.44444L8.04131 4.33158L8.05235 3.9976C8.05524 3.67572 8.22766 3.3883 8.49563 3.19937L5.56427 0.65418ZM11.855 7.18895C11.9536 7.10347 11.9596 6.9664 11.8688 6.87467L11.2869 6.28738C11.2866 6.28709 11.2864 6.28668 11.2863 6.28631L10.6837 2.48196C10.6837 2.18225 10.4012 1.93704 10.056 1.93704C9.71082 1.93704 9.42834 2.18225 9.42834 2.48196L9.412 2.97703C9.97998 3.04474 10.4222 3.45967 10.4439 3.96663L11.0193 7.59919L11.1867 7.76818L11.855 7.18895ZM0.753474 7.19504L2.39422 8.6196C3.79556 9.83627 5.26038 10.8129 6.54716 11.0564C6.58625 11.0638 6.62301 11.0781 6.65476 11.0993L7.39648 11.5938C7.44452 11.6258 7.50162 11.6416 7.55847 11.6416C7.62684 11.6416 7.69492 11.6188 7.74647 11.5741L11.0474 8.71269C11.1461 8.62726 11.1521 8.49019 11.0612 8.39842L10.4794 7.81116C10.4791 7.81084 10.4789 7.81047 10.4788 7.8101L9.87617 4.00575C9.87617 3.70603 9.5937 3.46078 9.24849 3.46078C8.90328 3.46078 8.62086 3.70603 8.62086 4.00575L8.5912 4.90349C8.58627 5.05265 8.44494 5.14977 8.29787 5.14977C8.22614 5.14977 8.15299 5.12661 8.09371 5.07519L4.75674 2.17797C4.63341 2.07089 4.471 2.01742 4.30844 2.01742C4.12295 2.01742 3.93741 2.08714 3.81025 2.22663C3.6086 2.44782 3.64399 2.7688 3.87373 2.96822L6.17248 4.96404C6.29183 5.06771 6.29183 5.23566 6.17248 5.33924C6.11207 5.39169 6.0329 5.41793 5.95373 5.41793C5.87456 5.41793 5.79534 5.39169 5.73498 5.33924L2.77975 2.77349C2.65646 2.66641 2.494 2.61294 2.33144 2.61294C2.14595 2.61298 1.96041 2.6827 1.83325 2.82219C1.6316 3.04334 1.667 3.36432 1.89674 3.56375L4.83809 6.11749C4.95905 6.22255 4.95905 6.39277 4.83809 6.49783C4.77849 6.54958 4.70041 6.57545 4.62223 6.57545C4.54415 6.57545 4.46602 6.54958 4.40642 6.49783L2.09379 4.49C1.97046 4.38292 1.80799 4.32944 1.64548 4.32944C1.45999 4.32944 1.27446 4.39917 1.14729 4.5387C0.945644 4.75985 0.981036 5.08083 1.21078 5.28025L3.50152 7.26916C3.62528 7.37657 3.62528 7.55082 3.50152 7.65822L3.49783 7.66147C3.44064 7.71112 3.36568 7.73593 3.29078 7.73593C3.21582 7.73593 3.14087 7.71112 3.08373 7.66147L1.66358 6.42847C1.53561 6.31737 1.36429 6.25862 1.19353 6.25862C1.0577 6.25862 0.922239 6.29581 0.809429 6.37335C0.508097 6.58043 0.489429 6.96583 0.753474 7.19504Z" fill="#0076FF"/>
</svg>
