<svg width="54" height="33" viewBox="0 0 54 33" fill="none" xmlns="http://www.w3.org/2000/svg">
<rect x="11.25" y="1.06451" width="42.5" height="22.217" rx="4.75" fill="white" stroke="#B7D8FF" stroke-width="0.5"/>
<path d="M50.1648 5.16559H21.4747V6.86612H50.1648V5.16559Z" fill="#A5A5A5"/>
<path d="M50.1648 11.4344H21.4747V12.2847H50.1648V11.4344Z" fill="#C4C4C4"/>
<path d="M50.1648 12.9035H21.4747V13.7538H50.1648V12.9035Z" fill="#C4C4C4"/>
<path d="M50.1648 14.3776H21.4747V15.2279H50.1648V14.3776Z" fill="#C4C4C4"/>
<path d="M50.1648 15.8467H21.4747V16.697H50.1648V15.8467Z" fill="#C4C4C4"/>
<path d="M19.588 5.32654H14.0741V6.1768H19.588V5.32654Z" fill="#DDDDDD"/>
<path d="M19.588 8.38043H14.0741V9.2307H19.588V8.38043Z" fill="#DDDDDD"/>
<path d="M19.588 11.4394H14.0741V12.2897H19.588V11.4394Z" fill="#DDDDDD"/>
<path d="M17.3671 32.0893L15.595 31.026C10.9874 28.6631 2.33925 23.512 4.60761 21.8108C5.30655 21.2866 5.7991 20.9957 6.13917 20.8614L4.962 19.6842L6.0253 17.912H7.08859L6.37973 15.7855L7.08859 14.7222H8.50631L7.79745 12.95L8.86074 11.8867L11.3418 12.5956L11.6962 11.1779L13.1139 10.8234L15.9494 12.5956L19.8481 15.7855L20.557 14.7222L21.2658 13.6589H23.038L23.7468 14.3677L24.8101 21.4563L26.2279 23.2285L24.1013 25.0007L24.8101 26.064L17.3671 32.0893Z" fill="white"/>
<path d="M1.17376 10.7878C0.937667 10.6428 0.881719 10.3591 1.04877 10.1541C1.21583 9.9491 1.54252 9.90045 1.7787 10.0456L3.08651 10.849C3.32261 10.9939 3.37855 11.2777 3.2115 11.4827C3.10947 11.6079 2.94774 11.6748 2.78365 11.6748C2.67909 11.6748 2.57348 11.6477 2.48157 11.5911L1.17376 10.7878Z" fill="#979797"/>
<path d="M4.64043 10.5248C4.57977 10.5446 4.51746 10.554 4.45629 10.554C4.24439 10.554 4.04498 10.4416 3.96609 10.2592L3.40232 8.95716C3.30056 8.72218 3.43749 8.45999 3.7082 8.37163C3.97883 8.2832 4.28087 8.40225 4.38263 8.63723L4.9464 9.93924C5.04807 10.1742 4.91114 10.4364 4.64043 10.5248Z" fill="#979797"/>
<path d="M0.52361 12.5134C0.527189 12.5134 0.530767 12.5134 0.534433 12.5134L2.13612 12.525C2.42528 12.5301 2.65491 12.7224 2.64906 12.9735C2.6433 13.2214 2.41 13.4227 2.12564 13.4227C2.12206 13.4227 2.11848 13.4227 2.11482 13.4227L0.513137 13.399C0.223977 13.3939 -0.00565839 13.192 0.000189304 12.9409C0.00594974 12.693 0.239251 12.5134 0.52361 12.5134Z" fill="#979797"/>
<path d="M4.52541 21.2122C4.79362 21.0278 5.11115 20.9023 5.44683 20.8434C5.42466 20.8085 5.40397 20.7731 5.38442 20.7371L5.17425 20.5546C4.36482 19.8517 4.27981 18.7455 4.97665 17.9811C5.30561 17.6203 5.76226 17.3805 6.26944 17.2911C6.23322 17.2332 6.2011 17.174 6.17195 17.1139C5.62069 16.4206 5.62968 15.4888 6.2402 14.8191C6.56925 14.4581 7.02607 14.2176 7.53352 14.1282C7.11457 13.4594 7.16808 12.6258 7.72772 12.0121C8.15085 11.548 8.78459 11.2817 9.4666 11.2817C10.0127 11.2817 10.5279 11.4511 10.9322 11.7614C10.9934 11.4598 11.1384 11.1686 11.3696 10.915C11.7929 10.4509 12.4266 10.1846 13.1086 10.1846C13.7012 10.1846 14.2576 10.3842 14.675 10.7467L19.9851 15.357L20.0054 14.7417C20.0147 13.6937 20.9997 12.8436 22.209 12.8436C23.3963 12.8436 24.3673 13.6631 24.4109 14.6848L25.471 21.3765L26.3424 22.2558C26.8646 22.783 26.8296 23.5805 26.2625 24.0716L24.9675 25.194C25.3667 25.7155 25.2968 26.4266 24.775 26.8786L18.6945 32.1495C18.4039 32.4011 18.0182 32.5396 17.6082 32.5396C17.2715 32.5396 16.9389 32.4415 16.6717 32.2634L15.4023 31.4171C14.1812 31.1666 12.8349 30.5977 11.3985 29.725C10.1442 28.9628 8.78337 27.9472 7.35416 26.7063L4.33156 24.082C3.88582 23.695 3.65122 23.1584 3.68787 22.6098C3.72453 22.0622 4.02975 21.5528 4.52541 21.2122ZM10.2925 12.4867C10.0653 12.2895 9.76605 12.1909 9.46668 12.1909C9.12498 12.1909 8.78319 12.3194 8.54893 12.5764C8.17747 12.9838 8.24258 13.5751 8.6658 13.9425L9.20493 14.4105C9.28802 14.4586 9.36893 14.5101 9.44469 14.5683C9.50587 14.2667 9.65102 13.9755 9.88222 13.722C10.1665 13.4102 10.5459 13.1883 10.971 13.0758L10.2925 12.4867ZM13.9345 11.3897C13.7074 11.1925 13.408 11.0939 13.1086 11.0939C12.7668 11.094 12.4251 11.2224 12.1909 11.4794C11.8194 11.8869 11.8845 12.4781 12.3077 12.8454L18.4975 18.164L18.5179 17.5488C18.5232 16.9558 18.8408 16.4263 19.3345 16.0783L13.9345 11.3897ZM25.5229 23.4277C25.7046 23.2703 25.7157 23.0178 25.5483 22.8488L24.4764 21.7669C24.4759 21.7664 24.4754 21.7656 24.4754 21.7649L23.3652 14.7567C23.3652 14.2046 22.8449 13.7529 22.209 13.7529C21.573 13.7529 21.0527 14.2046 21.0527 14.7567L21.0226 15.6687C22.0689 15.7934 22.8835 16.5578 22.9235 17.4917L23.9835 24.1835L24.2919 24.4948L25.5229 23.4277ZM5.07222 23.4389L8.09473 26.0632C10.6762 28.3045 13.3746 30.1036 15.7451 30.5521C15.8171 30.5658 15.8848 30.5921 15.9433 30.6311L17.3097 31.5421C17.3982 31.6012 17.5033 31.6302 17.6081 31.6302C17.734 31.6302 17.8594 31.5881 17.9544 31.5058L24.0353 26.2347C24.2171 26.0773 24.2282 25.8248 24.0607 25.6558L22.9889 24.5739C22.9883 24.5733 22.9879 24.5727 22.9878 24.572L21.8776 17.5638C21.8776 17.0117 21.3573 16.5599 20.7214 16.5599C20.0854 16.5599 19.5652 17.0117 19.5652 17.5638L19.5105 19.2176C19.5014 19.4923 19.2411 19.6712 18.9702 19.6712C18.838 19.6712 18.7033 19.6286 18.5941 19.5339L12.4469 14.1967C12.2197 13.9995 11.9205 13.901 11.621 13.901C11.2793 13.901 10.9375 14.0294 10.7033 14.2864C10.3318 14.6938 10.397 15.2851 10.8202 15.6525L15.0549 19.3291C15.2747 19.5201 15.2747 19.8295 15.0549 20.0203C14.9436 20.1169 14.7977 20.1652 14.6519 20.1652C14.5061 20.1652 14.3601 20.1169 14.2489 20.0203L8.80493 15.2938C8.57782 15.0965 8.27854 14.998 7.97908 14.998C7.63738 14.9981 7.29559 15.1265 7.06133 15.3835C6.68987 15.7909 6.75507 16.3822 7.17829 16.7495L12.5967 21.4539C12.8195 21.6475 12.8195 21.961 12.5967 22.1546C12.4869 22.2499 12.3431 22.2976 12.1991 22.2976C12.0552 22.2976 11.9113 22.2499 11.8015 22.1546L7.54129 18.4558C7.3141 18.2586 7.01481 18.1601 6.71544 18.1601C6.37374 18.1601 6.03195 18.2885 5.79769 18.5456C5.42623 18.9529 5.49143 19.5442 5.91465 19.9116L10.1346 23.5755C10.3625 23.7733 10.3625 24.0943 10.1346 24.2922L10.1277 24.2982C10.0224 24.3897 9.88432 24.4353 9.74633 24.4353C9.60825 24.4353 9.47017 24.3897 9.36492 24.2982L6.74879 22.0268C6.51304 21.8221 6.19744 21.7139 5.88288 21.7139C5.63265 21.7139 5.38311 21.7824 5.1753 21.9253C4.6202 22.3067 4.58581 23.0167 5.07222 23.4389Z" fill="#979797"/>
</svg>
