<svg width="477" height="533" viewBox="0 0 477 533" fill="none" xmlns="http://www.w3.org/2000/svg">
    <path d="M282.5 334L234 343.5H202L102 318.5L71.5 298.5L47.5 268L42.5 229.5L47.5 199L62.5 157L81 107.5L102 74L142 46L190 39.5L253 56.5L289 83.5L315 118.5L327.5 157V185.5L335 217L327.5 276.5L282.5 334Z" fill="#CA9A88" stroke="black"/>
    <path d="M192.5 284.5L214 309.5L245.5 317.5H265L278 312.5L294.5 292.5L302.5 273V254.5L294.5 242.5L281.5 232L267.5 221.5L256.5 207L249.5 187L241 172.5L232 168.5L222 172.5L219 187L209 215L192.5 249V284.5Z" fill="#FFE8B2" stroke="black"/>
    <path d="M350 365C360.289 377.308 380.477 414.538 378.914 465" stroke="black" stroke-width="8"/>
    <path d="M287 329C287 330.2 287 334.28 287 341" stroke="black" stroke-width="7"/>
    <path d="M120 325C121.105 332.607 126.853 348.056 141 349" stroke="black" stroke-width="8"/>
    <path d="M248.755 263.729C249.528 275.306 268.033 282.252 273.502 282.252C277.368 282.252 278.142 281.866 281.622 280.709C289.742 276.078 298.79 260.796 290.128 255.239C281.467 249.683 273.282 249.884 270.273 250.679C262.312 251.385 248.159 254.818 248.755 263.729Z" fill="black"/>
    <path d="M271.182 250.609C270.889 250.628 270.586 250.652 270.273 250.679M270.273 250.679C262.312 251.385 248.159 254.818 248.755 263.729C249.528 275.306 268.033 282.252 273.502 282.252C277.368 282.252 278.142 281.866 281.622 280.709C289.742 276.078 298.79 260.796 290.128 255.239C281.467 249.683 273.282 249.884 270.273 250.679ZM228.648 316.211C213.568 311.966 186.537 295.588 190.368 263.729C193.848 234.787 203.514 223.982 209.701 213.177C214.341 206.617 218.121 184.066 220.528 178.06C224.395 168.413 235.376 164.245 243.728 176.902C254.168 192.724 249.881 196.335 257.648 208.932C263.835 218.965 271.182 226.297 281.622 232.857C289.742 237.96 292.835 237.874 299.795 248.293C308.837 261.829 301.342 276.078 295.542 289.584C291.73 298.46 285.488 306.564 275.822 313.51C266.673 320.084 238.701 320.456 228.648 316.211Z" stroke="black" stroke-width="6"/>
    <ellipse cx="292" cy="180.5" rx="17" ry="17.5" fill="black"/>
    <circle cx="171.5" cy="188.5" r="19.5" fill="black"/>
    <path d="M152 445.5C152 461.836 138.973 475 123 475C107.027 475 94 461.836 94 445.5C94 429.164 107.027 416 123 416C138.973 416 152 429.164 152 445.5Z" stroke="black" stroke-width="6"/>
    <path d="M119.957 433.054C120.266 433.535 120.35 434.041 120.211 434.572C120.069 435.084 119.797 435.58 119.395 436.058C118.994 436.537 118.513 436.973 117.953 437.366C117.41 437.756 116.881 438.053 116.366 438.258C115.797 438.47 115.182 438.616 114.521 438.697C113.88 438.793 113.218 438.81 112.535 438.748C111.873 438.701 111.209 438.582 110.544 438.39C109.893 438.177 109.278 437.896 108.698 437.546C107.998 437.123 107.416 436.582 106.954 435.923C106.507 435.243 106.142 434.506 105.86 433.711C105.577 432.916 105.366 432.11 105.226 431.294C105.101 430.457 105.011 429.67 104.955 428.932C104.91 428.265 104.942 427.56 105.049 426.816C105.156 426.072 105.346 425.334 105.619 424.602C105.907 423.849 106.274 423.139 106.721 422.472C107.185 421.802 107.752 421.208 108.42 420.689C108.924 420.286 109.507 419.981 110.167 419.773C110.843 419.545 111.533 419.415 112.238 419.382C112.958 419.329 113.649 419.381 114.309 419.537C114.984 419.673 115.575 419.913 116.081 420.256C116.403 420.462 116.749 420.766 117.118 421.165C117.505 421.563 117.804 421.982 118.016 422.424C118.227 422.865 118.292 423.302 118.211 423.732C118.145 424.143 117.828 424.463 117.262 424.693C117.024 424.801 116.804 424.852 116.603 424.846C116.399 424.822 116.209 424.768 116.033 424.685C115.854 424.585 115.681 424.465 115.515 424.326C115.349 424.187 115.191 424.046 115.043 423.905C114.538 423.452 113.988 423.18 113.392 423.087C112.793 422.976 112.216 423.016 111.663 423.208C111.124 423.38 110.633 423.689 110.191 424.138C109.763 424.565 109.459 425.084 109.277 425.694C109.082 426.341 108.95 427.044 108.881 427.8C108.827 428.536 108.847 429.279 108.941 430.03C109.032 430.762 109.201 431.465 109.447 432.138C109.711 432.809 110.069 433.383 110.523 433.861C110.871 434.246 111.27 434.541 111.72 434.747C112.187 434.95 112.669 435.07 113.165 435.105C113.662 435.14 114.145 435.086 114.615 434.943C115.103 434.797 115.56 434.565 115.986 434.247C116.117 434.154 116.254 434.034 116.396 433.885C116.553 433.716 116.709 433.547 116.866 433.378C117.023 433.209 117.181 433.049 117.34 432.898C117.518 432.744 117.709 432.625 117.915 432.539C118.219 432.385 118.568 432.342 118.96 432.411C119.37 432.477 119.703 432.691 119.957 433.054ZM134.932 417.578C135.166 418.417 135.378 419.405 135.565 420.541C135.751 421.66 135.903 422.802 136.022 423.967C136.157 425.112 136.239 426.21 136.268 427.261C136.295 428.295 136.266 429.136 136.181 429.786C136.112 430.178 136.019 430.593 135.902 431.029C135.8 431.444 135.676 431.827 135.528 432.176C135.314 432.7 135.031 433.179 134.677 433.614C134.321 434.031 133.914 434.41 133.455 434.752C133.012 435.073 132.524 435.345 131.994 435.57C131.481 435.792 130.959 435.952 130.427 436.05C129.489 436.226 128.57 436.227 127.671 436.052C126.786 435.856 125.937 435.473 125.124 434.903C124.513 434.467 124.003 433.978 123.595 433.439C123.187 432.899 122.846 432.322 122.572 431.708C122.296 431.076 122.079 430.416 121.922 429.73C121.783 429.041 121.659 428.332 121.55 427.602C121.5 427.263 121.428 426.846 121.336 426.351C121.259 425.834 121.181 425.309 121.101 424.775C121.019 424.223 120.939 423.689 120.862 423.173C120.785 422.657 120.728 422.219 120.693 421.86C120.659 421.629 120.621 421.38 120.582 421.113C120.539 420.828 120.507 420.55 120.485 420.281C120.478 419.991 120.491 419.716 120.525 419.456C120.557 419.178 120.628 418.922 120.738 418.687C120.864 418.432 121.061 418.229 121.33 418.08C121.599 417.931 121.885 417.833 122.187 417.788C122.508 417.74 122.82 417.757 123.123 417.84C123.427 417.922 123.685 418.065 123.897 418.27C124.007 418.399 124.091 418.532 124.148 418.669C124.205 418.806 124.255 418.963 124.3 419.138C124.423 419.72 124.541 420.385 124.652 421.133C124.782 421.878 124.89 422.608 124.979 423.323C125.083 424.017 125.169 424.659 125.239 425.249C125.309 425.839 125.365 426.277 125.408 426.562C125.567 427.63 125.765 428.592 126.003 429.449C126.237 430.287 126.592 430.962 127.069 431.473C127.502 431.937 127.97 432.203 128.472 432.274C128.974 432.345 129.461 432.318 129.934 432.192C130.371 432.073 130.792 431.846 131.197 431.512C131.617 431.159 131.921 430.695 132.109 430.121C132.186 429.909 132.242 429.673 132.276 429.413C132.31 429.153 132.329 428.914 132.333 428.695C132.303 428.008 132.248 427.215 132.169 426.317C132.087 425.401 131.993 424.469 131.888 423.52C131.783 422.571 131.662 421.643 131.527 420.735C131.391 419.827 131.26 419.009 131.133 418.282C131.121 417.956 131.175 417.648 131.295 417.357C131.403 417.104 131.578 416.869 131.818 416.651C132.058 416.433 132.41 416.29 132.873 416.221C133.25 416.183 133.567 416.235 133.825 416.379C134.08 416.504 134.294 416.655 134.465 416.829C134.66 417.037 134.816 417.286 134.932 417.578ZM125.083 470.05C125.127 470.226 125.135 470.397 125.105 470.566C125.086 470.678 125.045 470.775 124.985 470.857C124.942 470.936 124.882 471.018 124.803 471.102C124.659 471.233 124.478 471.36 124.259 471.484C124.122 471.54 123.984 471.588 123.844 471.627C123.725 471.682 123.591 471.702 123.444 471.687C123.156 471.712 122.891 471.642 122.648 471.478C122.308 471.274 122.018 471.036 121.777 470.762C121.667 470.633 121.545 470.487 121.411 470.325C121.278 470.163 121.152 469.991 121.034 469.808L117.229 464.616C117.086 464.637 116.945 464.668 116.805 464.707C116.663 464.728 116.522 464.758 116.382 464.797C116.014 464.889 115.659 464.951 115.318 464.983C114.995 465.013 114.657 465.064 114.303 465.135L113.796 465.21L114.517 470.044C114.538 470.186 114.55 470.321 114.55 470.448C114.569 470.573 114.589 470.707 114.61 470.849C114.623 470.938 114.632 471.055 114.635 471.2C114.656 471.343 114.667 471.477 114.668 471.605C114.662 471.806 114.612 472.023 114.52 472.255C114.424 472.469 114.28 472.664 114.088 472.838C113.749 473.125 113.304 473.255 112.754 473.228C112.515 473.209 112.279 473.153 112.046 473.061C111.967 473.018 111.896 472.965 111.832 472.902C111.765 472.821 111.707 472.738 111.658 472.655C111.609 472.571 111.56 472.487 111.512 472.403C111.478 472.299 111.437 472.205 111.388 472.122C111.308 471.952 111.256 471.787 111.232 471.626L108.968 456.458C108.952 456.351 108.936 456.245 108.92 456.138C108.919 456.011 108.921 455.901 108.926 455.809C108.914 455.611 108.947 455.406 109.025 455.194C109.046 454.972 109.113 454.808 109.224 454.7C109.315 454.577 109.462 454.465 109.665 454.361C109.883 454.238 110.207 454.153 110.637 454.107C111.441 454.005 112.234 453.896 113.018 453.779C113.801 453.662 114.587 453.563 115.376 453.482C115.897 453.44 116.45 453.422 117.033 453.426C117.631 453.409 118.194 453.462 118.721 453.583C119.06 453.66 119.373 453.741 119.658 453.825C120.026 453.971 120.321 454.118 120.543 454.267C121.251 454.743 121.825 455.358 122.265 456.111C122.705 456.865 122.987 457.651 123.109 458.47C123.252 459.431 123.152 460.347 122.809 461.217C122.484 462.085 121.852 462.789 120.913 463.329C120.883 463.37 120.833 463.405 120.765 463.433C120.711 463.441 120.668 463.457 120.635 463.48L123.829 468.053L124.134 468.445C124.18 468.511 124.236 468.584 124.303 468.665C124.37 468.746 124.427 468.829 124.476 468.912C124.543 468.993 124.602 469.085 124.654 469.186C124.723 469.285 124.791 469.375 124.858 469.456C124.948 469.697 125.023 469.895 125.083 470.05ZM116.988 461.54C117.308 461.492 117.603 461.394 117.872 461.244C118.156 461.075 118.399 460.874 118.601 460.644C118.821 460.411 118.993 460.158 119.116 459.885C119.236 459.594 119.283 459.296 119.255 458.99C119.194 458.09 118.864 457.465 118.266 457.118C117.666 456.753 116.927 456.617 116.049 456.712C115.527 456.753 114.955 456.82 114.332 456.913C113.727 457.004 113.148 457.09 112.596 457.173C112.723 457.9 112.834 458.647 112.931 459.416C113.042 460.163 113.175 461.054 113.329 462.086L116.988 461.54ZM140.043 451.001C140.193 451.397 140.264 451.814 140.257 452.252C140.264 452.67 140.24 453.056 140.184 453.41C140.074 454.136 139.94 454.948 139.783 455.845C139.626 456.742 139.468 457.639 139.311 458.536C139.154 459.433 138.999 460.284 138.846 461.089C138.69 461.877 138.561 462.533 138.457 463.058C138.348 463.548 138.24 464.101 138.132 464.718C138.024 465.334 137.87 465.949 137.67 466.561C137.485 467.153 137.24 467.708 136.936 468.227C136.649 468.743 136.263 469.146 135.779 469.437C135.294 469.727 134.83 469.851 134.387 469.808C133.941 469.747 133.527 469.591 133.143 469.339C132.757 469.069 132.387 468.723 132.033 468.303C131.694 467.862 131.381 467.409 131.093 466.942C130.805 466.475 130.537 466.024 130.29 465.588C130.04 465.134 129.819 464.748 129.626 464.431C128.894 463.303 128.204 462.095 127.557 460.809C126.91 459.522 126.263 458.299 125.617 457.14C125.439 456.803 125.233 456.397 124.998 455.922C124.761 455.43 124.579 454.938 124.451 454.448C124.338 453.937 124.331 453.465 124.43 453.031C124.527 452.58 124.821 452.236 125.314 451.998C125.415 451.947 125.518 451.904 125.622 451.87C125.741 451.816 125.853 451.772 125.957 451.739C126.082 451.72 126.199 451.712 126.308 451.713C126.418 451.715 126.54 451.743 126.675 451.795C126.77 451.817 126.865 451.849 126.962 451.889C127.057 451.911 127.145 451.953 127.227 452.013C127.311 452.092 127.387 452.171 127.454 452.252C127.538 452.331 127.623 452.409 127.707 452.487C127.779 452.604 127.841 452.713 127.892 452.815C127.959 452.896 128.017 452.978 128.066 453.062C128.12 453.181 128.182 453.29 128.251 453.389C128.318 453.47 128.376 453.552 128.424 453.636L128.652 454.066L134.136 464.468L136.294 452.953L136.413 452.471C136.435 452.377 136.458 452.282 136.48 452.188C136.5 452.076 136.518 451.955 136.535 451.825C136.557 451.731 136.58 451.636 136.602 451.542C136.639 451.427 136.686 451.311 136.741 451.194C136.781 451.097 136.821 451 136.861 450.903C136.917 450.785 136.973 450.677 137.031 450.577C137.074 450.498 137.127 450.426 137.19 450.362C137.271 450.296 137.345 450.239 137.411 450.193C137.542 450.1 137.66 450.037 137.765 450.004C137.886 449.967 137.992 449.942 138.081 449.929C138.19 449.931 138.301 449.942 138.413 449.961C138.541 449.96 138.66 449.97 138.772 449.99C139.124 450.028 139.396 450.142 139.588 450.332C139.798 450.519 139.949 450.742 140.043 451.001Z" fill="black"/>
    <path d="M174.238 183.076C174.682 181.639 175.224 181.514 176.445 181.521C176.509 181.416 176.591 181.319 176.692 181.232C177.351 180.668 179.753 181.278 180.423 181.533C181.986 182.128 182 183.17 182 184.427C182 187.697 178.815 189.038 175.916 187.107C174.111 185.905 173.657 184.957 174.238 183.076Z" fill="white"/>
    <path d="M177.493 181.533C175.5 181.533 174.793 181.281 174.238 183.076C173.657 184.957 174.111 185.905 175.916 187.107C178.815 189.038 182 187.697 182 184.427C182 183.17 181.986 182.128 180.423 181.533C179.753 181.278 177.351 180.668 176.692 181.232C174.987 182.692 178.845 186.975 178.845 183.848" stroke="white" stroke-width="3" stroke-linecap="round"/>
    <path d="M297.758 176.227C293.092 179.414 298.967 183.871 300.963 181.163C301.736 180.114 302.556 178.797 301.493 177.67C300.012 176.1 297.758 175.398 297.758 176.625" stroke="white" stroke-width="3" stroke-linecap="round"/>
    <path d="M280 257C281.956 257 283.693 257.135 285.579 257.457C286.989 257.697 287.884 258.476 289 259" stroke="white" stroke-width="3" stroke-linecap="round"/>
    <circle cx="299.5" cy="178.5" r="2.5" fill="white"/>
    <path d="M33 431.5V473H383.5V416L353 356.5L284.5 345L266.5 359.5L254 380L220 362L185.5 353.5L161.5 349L143 337.5L87 315H81L62 322.5L59 337.5L65.5 345V353.5L57.5 371.5L44 393L33 431.5Z" fill="#FFD6F3"/>
    <path d="M92.4201 312.471C83.6332 311.054 64.5088 312.007 58.3064 327.154C57.6603 330.89 57.6086 338.901 62.5706 341.065C67.5326 343.229 65.4134 352.27 63.7335 356.521C61.4076 361.93 60.7098 374.604 76.5262 382.023C96.2966 391.297 88.5435 395.161 126.921 396.706C165.299 398.252 195.149 393.229 199.025 392.456C202.902 391.683 229.65 388.206 240.892 392.456C249.886 395.856 260.921 396.706 265.314 396.706L268.803 392.456C269.191 392.07 269.269 390.756 266.477 388.592" stroke="black" stroke-width="8"/>
    <path d="M64 355C49.1082 373.277 21.9212 422.265 32.3072 472" stroke="black" stroke-width="8" stroke-linecap="round"/>
    <path d="M309.808 312C323.153 314.84 350.076 329.272 351 364.279C335.088 362.085 296.41 364.357 269 391" stroke="black" stroke-width="8"/>
    <path d="M82.2833 348.672C35.9903 468.904 79.5929 512.568 107.181 519.37C170.424 522.801 171.655 415.579 164.366 361.539C137.041 342.085 98.2589 344.856 82.2833 348.672Z" fill="#FFD6F3" stroke="black" stroke-width="8"/>
    <path d="M190 351.5V341L269.5 337L272 349.5L254 377.5L190 351.5Z" fill="#FFE8B2" stroke="black"/>
    <path d="M272.5 353.5L268 336L285.5 332V341.5L272.5 353.5Z" fill="#CA9A88"/>
    <path d="M161 347.5L164.5 336L189.5 341V351.5L161 347.5Z" fill="#CA9A88"/>
    <path d="M272.5 353.5L268 336L285.5 332V341.5L272.5 353.5Z" stroke="black"/>
    <path d="M161 347.5L164.5 336L189.5 341V351.5L161 347.5Z" stroke="black"/>
    <path d="M138.5 350L138.371 346.002L138.175 346.008L137.981 346.034L138.5 350ZM121.296 341.725C119.487 340.457 116.993 340.895 115.725 342.704C114.457 344.513 114.895 347.007 116.704 348.275L121.296 341.725ZM271.78 390.624C253.688 373.134 201.512 343.965 138.371 346.002L138.629 353.998C199.488 352.035 249.597 380.306 266.22 396.376L271.78 390.624ZM137.981 346.034C136.587 346.216 133.807 346.165 130.554 345.49C127.33 344.821 123.984 343.608 121.296 341.725L116.704 348.275C120.545 350.968 125.005 352.509 128.928 353.323C132.822 354.131 136.527 354.292 139.019 353.966L137.981 346.034Z" fill="black"/>
    <path d="M295.946 343.002C298.155 343.032 299.97 341.265 300 339.056C300.029 336.847 298.263 335.033 296.054 335.003L295.946 343.002ZM258.845 381.103C260.713 374.593 264.93 364.772 271.373 356.708C277.83 348.627 286.04 342.869 295.946 343.002L296.054 335.003C282.663 334.823 272.352 342.667 265.123 351.714C257.881 360.777 253.246 371.611 251.155 378.897L258.845 381.103Z" fill="black"/>
    <path d="M227.5 25.5V47L258 59L277.5 72.5L287 50.5L285.5 29.5L276 14L258 5H243L227.5 25.5Z" fill="#CA9A88"/>
    <path d="M110 65.5L78.5 109L46 105L31.5 94.5L25.5 75L24 54L28 37L46 29.5L72.5 25.5L90.5 34.5L110 65.5Z" fill="#CA9A88"/>
    <path d="M227.5 25.5V47L258 59L277.5 72.5L287 50.5L285.5 29.5L276 14L258 5H243L227.5 25.5Z" stroke="black"/>
    <path d="M110 65.5L78.5 109L46 105L31.5 94.5L25.5 75L24 54L28 37L46 29.5L72.5 25.5L90.5 34.5L110 65.5Z" stroke="black"/>
    <path d="M246 35L250 56L267.5 64.5L274 45L271 32L259.5 25.5H246V35Z" fill="#FFE8B2"/>
    <path d="M97.5 81.5L86 97.5L71 93L50.5 79L46.5 61.5L50.5 50H66.5L86 61.5L97.5 81.5Z" fill="#FFE8B2"/>
    <path d="M246 35L250 56L267.5 64.5L274 45L271 32L259.5 25.5H246V35Z" stroke="black"/>
    <path d="M97.5 81.5L86 97.5L71 93L50.5 79L46.5 61.5L50.5 50H66.5L86 61.5L97.5 81.5Z" stroke="black"/>
    <path d="M47 54C52.0433 42.2075 80.9128 43.8069 97.3617 81.8574M109 68.4926C104.345 53.8175 88.9821 24.7817 64.7744 26.0396C40.5666 27.2974 31.8458 31.4453 27.144 38.6183C19.8195 52.2787 24.0404 70.458 25.98 77.9266C27.746 84.7268 27.5317 97.1877 48.8686 104.263C69.7808 111.198 76.4127 108.587 81.068 108.194" stroke="black" stroke-width="8"/>
    <path d="M250.576 56.1443C246.436 46.7627 240.639 27.4597 250.576 25.3007C260.514 23.1416 271.15 29.9272 272.703 34.5538C275.29 42.2647 273.324 59.6142 266.492 62.6986M230.003 48.4334C225.733 38.7948 222.472 16.9729 243.589 6.79447C269.985 -5.92854 287.842 28.5078 287.842 35.7104C287.842 39.5658 290.171 53.06 276.972 71.5661M86.5 96C69.0318 96 37.4072 81.8015 47.4999 52.5" stroke="black" stroke-width="8"/>
    <path d="M79 117L88 95.5L138.5 76.5L199 66L244.5 69L283.5 76.5L294.5 89L311.5 114L321.5 137.5L279 128.5L233 125.5L171 128.5L117 137.5L66 148L54 180.5L3.5 187L35.5 151L11 145L68.5 130L79 117Z" fill="white" stroke="black" stroke-linejoin="round"/>
    <path d="M3 188L0.484623 186.365C-0.167301 187.368 -0.161017 188.663 0.500613 189.659C1.16224 190.656 2.35275 191.164 3.53019 190.953L3 188ZM3 148.875L1.79585 146.127C0.423639 146.729 -0.294562 148.25 0.113319 149.692C0.521199 151.133 1.93011 152.053 3.41397 151.846L3 148.875ZM55.8766 175.458L2.46981 185.047L3.53019 190.953L56.937 181.363L55.8766 175.458ZM5.51538 189.635C8.96478 184.328 14.7067 177.195 20.7278 170.769C26.8183 164.268 32.8725 158.84 36.9313 156.637L34.0687 151.363C29.0835 154.07 22.4611 160.143 16.3493 166.667C10.1682 173.264 4.18212 180.676 0.484623 186.365L5.51538 189.635ZM36.9313 156.637C37.6312 156.257 38.3085 155.811 38.8686 155.271C39.4165 154.743 40.0364 153.946 40.2475 152.858C40.7459 150.289 38.74 148.795 37.8263 148.256C36.7037 147.594 35.2499 147.124 33.7681 146.765C32.2335 146.394 30.4451 146.092 28.5183 145.852C20.8687 144.9 10.2172 144.841 2.58603 145.904L3.41397 151.846C10.4664 150.864 20.5869 150.912 27.7775 151.806C29.5607 152.028 31.1116 152.296 32.3577 152.597C33.6567 152.911 34.4249 153.216 34.7781 153.424C35.3403 153.756 34.0637 153.228 34.3573 151.715C34.4661 151.155 34.75 150.907 34.7049 150.951C34.672 150.982 34.4993 151.13 34.0687 151.363L36.9313 156.637ZM4.20415 151.623C11.8478 148.273 24.4668 143.31 37.3955 139.344C50.4524 135.339 63.361 132.5 71.7969 133.073L72.2031 127.087C62.5509 126.432 48.6911 129.603 35.6358 133.608C22.4524 137.652 9.6155 142.7 1.79585 146.127L4.20415 151.623Z" fill="black"/>
    <path d="M67.3859 146.803C84.0492 74.1776 131.416 46.7102 153.017 42.0547C167.803 38.6924 209.101 37.0113 256.006 57.1851C308.464 85.118 332.379 155.338 329.679 173.184C327.519 187.461 330.579 208.1 332.379 216.636C340.402 254.811 316.693 300.305 303.836 318.28C297.793 327.333 266.652 344.429 190.432 340.394C114.213 336.359 69.4431 300.176 56.5856 282.588C38.3793 261.173 43.8566 212.368 48.8711 190.642C52.3888 180.071 63.9143 158.701 67.3859 146.803Z" stroke="black" stroke-width="8"/>
    <path d="M86 96.9999C116.933 79.4647 198.439 50.9906 285 78" stroke="black" stroke-width="6"/>
    <path d="M67 149C124.96 133.174 257.304 109.163 323 139.727" stroke="black" stroke-width="6"/>
    <path d="M154.118 355.54C167.77 340.953 177.204 291.372 128.413 289.249C86.7134 287.435 85.894 329.367 94.111 346.963C108.44 346.952 140.502 348.653 154.118 355.54Z" fill="#CA9A88"/>
    <path d="M94.5457 347.854C94.3982 347.565 94.2532 347.267 94.111 346.963M94.111 346.963C85.894 329.367 86.7134 287.435 128.413 289.249C177.204 291.372 167.77 340.953 154.118 355.54C140.502 348.653 108.44 346.952 94.111 346.963Z" stroke="black" stroke-width="8"/>
    <path d="M310.799 285.056C273.643 294.493 284.84 332.069 296.761 344.532C307.162 340.341 332.424 332.704 350.264 335.682C358.273 319.521 353.535 274.202 310.799 285.056Z" fill="#CA9A88" stroke="black" stroke-width="8"/>
    <path d="M190 341V355" stroke="black" stroke-width="6"/>
    <path d="M268 337L272 351" stroke="black" stroke-width="6"/>
    <path d="M286.372 348.428C277.62 464.416 326.673 490.825 352.294 489.531C407.863 476.049 381.041 383.028 360.684 338.203C332.001 328.491 299.192 340.973 286.372 348.428Z" fill="#FFD6F3" stroke="black" stroke-width="8"/>
    <path d="M140 220L134 235" stroke="#FFD6F3" stroke-width="5" stroke-linecap="round" stroke-linejoin="round"/>
    <path d="M154 220L148 235" stroke="#FFD6F3" stroke-width="5" stroke-linecap="round" stroke-linejoin="round"/>
    <path d="M303 208L297 222" stroke="#FFD6F3" stroke-width="4" stroke-linecap="round" stroke-linejoin="round"/>
    <path d="M167 220L161 235" stroke="#FFD6F3" stroke-width="5" stroke-linecap="round" stroke-linejoin="round"/>
    <path d="M315 208L309 222" stroke="#FFD6F3" stroke-width="4" stroke-linecap="round" stroke-linejoin="round"/>
    <path d="M431.5 240.5L390 268.5L436 249.5L431.5 240.5Z" fill="#A4CCF7" stroke="#A4CCF7" stroke-width="8" stroke-linecap="round"/>
    <path d="M449.676 337.609L401 325.908L446.077 347.005L449.676 337.609Z" fill="#A4CCF7" stroke="#A4CCF7" stroke-width="8" stroke-linecap="round"/>
    <path d="M470.451 279.617L402.049 297.883L472 294.5L470.451 279.617Z" fill="#0076FF" stroke="#0076FF" stroke-width="8" stroke-linecap="round"/>
</svg>
