<svg width="15" height="14" viewBox="0 0 15 14" fill="none" xmlns="http://www.w3.org/2000/svg">
<path fill-rule="evenodd" clip-rule="evenodd" d="M11.0846 9.50269L14.3676 12.7857C14.5906 13.0059 14.5906 13.3682 14.3676 13.5883C14.1447 13.8113 13.7851 13.8113 13.5622 13.5883L10.2792 10.3081C9.28705 11.1219 8.019 11.6096 6.6339 11.6096C3.45402 11.6096 0.878906 9.0317 0.878906 5.85461C0.878906 2.67751 3.45402 0.0996094 6.6339 0.0996094C9.811 0.0996094 12.3889 2.67751 12.3889 5.85461C12.3889 7.23971 11.8984 8.51054 11.0846 9.50269ZM2.02216 5.85595C2.02216 8.39763 4.09005 10.4655 6.63451 10.4655C9.17619 10.4655 11.2469 8.39763 11.2469 5.85595C11.2469 3.31428 9.17619 1.24359 6.63451 1.24359C4.09005 1.24359 2.02216 3.31428 2.02216 5.85595Z" fill="#9FA0A1"/>
</svg>
