<svg width="340" height="604" viewBox="0 0 340 604" fill="none" xmlns="http://www.w3.org/2000/svg">
    <path d="M92.4112 462.624C93.7203 471.094 105.775 481.627 111.638 485.835L118.593 483.392L153.365 485.835L189.365 494.794L218.41 509.861L220.046 507.417L232.728 488.278L250.319 475.655V467.51L263 459.773L270.364 450L282.228 456.108L300.636 470.768L308 498.459H302.273L263 504.16L232.728 522.485L215.137 509.861L232.728 524.113L225.364 529L197.956 522.485L170.138 524.113L118.593 529L72.3659 526.964L57.6388 518.005C52.5934 514.747 41.848 507.417 39.2299 504.16C35.9572 500.088 41.6844 488.278 42.5026 483.392C43.3207 478.505 39.2299 476.469 35.9572 473.619C32.6845 470.768 38.8208 467.103 39.2299 459.773C39.5571 453.909 57.6388 450.814 66.6387 450L92.4112 462.624Z" fill="#A4CCF7" stroke="black"/>
    <path d="M336 597H11V561.136L22.8852 520.789L42.9672 489L111.82 510.6L226.164 520.789L259.361 489L310.18 500.819L326.164 531.385L336 561.136V597Z" fill="#A4CCF7"/>
    <path d="M187.723 329.348L195.469 317L203.623 318.646L210.962 325.232L224.823 354.455L237.462 371.33L260.7 387.794L266 407.139L260.7 424.838L243.169 450.768L210.554 459L187.723 452.003L165.708 433.481L160 412.078L165.708 382.032L181.2 354.455L187.723 329.348Z" fill="#E2CFC3" stroke="black"/>
    <path d="M159 485.1V477.289L231.342 474L235 485.1L216.711 511L159 485.1Z" fill="#FFE8B2" stroke="black"/>
    <path d="M277.907 435.682L260.313 461.454L227.989 473.318L178.481 477L131.837 473.318L85.1924 461.454L57.3695 441L28.3191 416.045L23 383.727L28.3191 335.455L44.6855 300.682L57.3695 263.864L77.8275 229.5L110.56 203.318L135.928 198H170.707L214.896 210.273L248.856 234L277.907 273.682L291 319.091V360.409V398.864L277.907 435.682Z" fill="#CA9A88" stroke="black"/>
    <path d="M227.833 457H204.669L190.853 453.71L169.315 438.905L162 421.222V401.482L169.315 375.574L182.725 352.956L188.821 323.757L194.104 318H204.669L213.61 328.281L218.08 346.376L227.833 358.302L237.179 370.639L255.466 385.444L264 396.547V412.997L255.466 435.615L242.869 449.598L227.833 457Z" fill="#FFE8B2" stroke="black"/>
    <path d="M159 486V478.286L125.166 471.857L95 462L100.707 478.286L109.268 486H159Z" fill="#CA9A88" stroke="black"/>
    <path d="M234.583 484L230 473.463L250 468V477.366L234.583 484Z" fill="#CA9A88" stroke="black"/>
    <path d="M194.882 186.54V204.766L210.857 210.151L240.76 226.72L251 200.209L245.265 182.397L235.025 169.142L218.64 165L203.484 169.142L194.882 186.54Z" fill="#CA9A88"/>
    <path d="M70.7678 239.975L57.66 264L55.2023 261.929L20.7944 257.372L6.86733 245.36V229.619L4 210.151L6.86733 196.067L17.1078 190.268L44.5522 182.397L60.1177 190.268L75.6833 204.766L83.8756 226.72L70.7678 239.975Z" fill="#CA9A88"/>
    <path d="M194.882 186.54V204.766L210.857 210.151L240.76 226.72L251 200.209L245.265 182.397L235.025 169.142L218.64 165L203.484 169.142L194.882 186.54Z" stroke="black"/>
    <path d="M70.7678 239.975L57.66 264L55.2023 261.929L20.7944 257.372L6.86733 245.36V229.619L4 210.151L6.86733 196.067L17.1078 190.268L44.5522 182.397L60.1177 190.268L75.6833 204.766L83.8756 226.72L70.7678 239.975Z" stroke="black"/>
    <path d="M212 198.211L216.435 212.6L233.371 220L237 202.322L233.371 186.7L221.677 183L212 186.7V198.211Z" stroke="black"/>
    <path d="M230.674 220L213.876 208.955L211.417 186.455L219.612 184L233.542 188.5L236 202.409L230.674 220Z" fill="#FFE8B2"/>
    <path d="M72.9359 236.364L63.9223 247L27.868 233.5L25 224.091V208.955L34.0136 205.682L50.8117 208.955L62.2835 220L72.9359 236.364Z" fill="#FFE8B2"/>
    <path d="M230.674 220L213.876 208.955L211.417 186.455L219.612 184L233.542 188.5L236 202.409L230.674 220Z" stroke="black"/>
    <path d="M72.9359 236.364L63.9223 247L27.868 233.5L25 224.091V208.955L34.0136 205.682L50.8117 208.955L62.2835 220L72.9359 236.364Z" stroke="black"/>
    <path d="M159 478V487" stroke="black" stroke-width="6"/>
    <path d="M231 474L235 487" stroke="black" stroke-width="6"/>
    <path d="M43 492C28.9842 508.871 3.39641 554.091 13.1715 600" stroke="black" stroke-width="8"/>
    <path d="M308 500C317.934 511.446 337.426 546.071 335.917 593" stroke="black" stroke-width="8"/>
    <path d="M250 467C250 468.1 250 471.84 250 478" stroke="black" stroke-width="7"/>
    <path d="M94 463C95.0526 470.29 100.526 485.095 114 486" stroke="black" stroke-width="8"/>
    <path d="M68.81 451.438C60.6894 450.121 43.0153 451.007 37.2831 465.085C36.686 468.556 36.6383 476.002 41.224 478.013C45.8097 480.024 43.8512 488.428 42.2988 492.378C40.1492 497.406 39.5043 509.185 54.1213 516.08C72.3926 524.699 65.2274 528.291 100.695 529.727C136.163 531.164 163.749 526.495 167.331 525.777C170.914 525.058 195.634 521.826 206.024 525.777C214.335 528.937 224.534 529.727 228.594 529.727L231.818 525.777C232.177 525.418 232.248 524.197 229.669 522.185" stroke="black" stroke-width="8"/>
    <path d="M257.946 480.002C260.155 480.032 261.97 478.265 262 476.056C262.029 473.847 260.263 472.032 258.054 472.003L257.946 480.002ZM223.845 515.103C225.568 509.098 229.461 500.032 235.404 492.595C241.36 485.14 248.892 479.881 257.946 480.002L258.054 472.003C245.515 471.835 235.882 479.181 229.154 487.601C222.413 496.038 218.101 506.116 216.155 512.896L223.845 515.103Z" fill="black"/>
    <path d="M269.822 451C282.191 453.66 307.144 467.178 308 499.971C293.252 497.915 257.405 500.043 232 525" stroke="black" stroke-width="8"/>
    <path d="M112.233 485.915L111.742 481.946L111.724 481.948L111.707 481.95L112.233 485.915ZM96.3181 478.74C94.5178 477.46 92.0205 477.882 90.7402 479.682C89.4599 481.482 89.8815 483.979 91.6819 485.26L96.3181 478.74ZM234.801 521.144C218.233 504.896 170.772 474.636 111.742 481.946L112.725 489.885C168.67 482.957 213.829 511.782 229.199 526.856L234.801 521.144ZM111.707 481.95C110.288 482.138 107.608 482.23 104.622 481.782C101.621 481.331 98.6301 480.384 96.3181 478.74L91.6819 485.26C95.3761 487.887 99.7138 489.135 103.435 489.693C107.169 490.253 110.603 490.167 112.76 489.88L111.707 481.95Z" fill="black"/>
    <path d="M216.194 213.589C212.343 204.847 206.952 186.86 216.194 184.848C225.437 182.836 235.329 189.159 236.773 193.471C239.179 200.656 237.35 216.822 230.996 219.696M197.06 206.404C193.089 197.422 190.056 177.088 209.696 167.604C234.246 155.748 250.853 187.837 250.853 194.548C250.853 198.141 253.019 210.715 240.744 227.959M66.3691 247C50.123 247 17.2697 239.456 26.6563 212.152" stroke="black" stroke-width="8"/>
    <path d="M44.8537 297.997C60.4253 230.68 104.689 205.22 124.874 200.905C138.692 197.788 177.284 196.23 221.116 214.929C270.137 240.82 292.485 305.908 289.962 322.45C287.944 335.683 290.803 354.814 292.485 362.725C299.983 398.11 277.827 440.279 265.812 456.941C260.165 465.332 231.064 481.178 159.838 477.438C88.6128 473.698 46.7761 440.159 34.761 423.858C17.7476 404.008 22.866 358.77 27.5519 338.632C30.8392 328.834 41.6096 309.025 44.8537 297.997Z" stroke="black" stroke-width="8"/>
    <path d="M26.694 212.004C31.3267 200.922 57.199 201.734 72.309 237.492M83 224.933C78.7236 211.142 64.6114 183.855 42.3741 185.037C20.1368 186.219 12.1257 190.117 7.80671 196.858C1.07835 209.696 4.95574 226.78 6.73743 233.798C8.35968 240.189 8.16286 251.899 27.7631 258.548C46.9731 265.065 53.0651 262.612 57.3415 262.243" stroke="black" stroke-width="8"/>
    <ellipse cx="252.5" cy="329" rx="15.5" ry="16" fill="black"/>
    <circle cx="142" cy="336" r="18" fill="black"/>
    <path d="M144.208 331.076C144.597 329.639 145.071 329.514 146.139 329.521C146.195 329.416 146.267 329.319 146.355 329.232C146.932 328.668 149.034 329.278 149.62 329.533C150.988 330.128 151 331.17 151 332.427C151 335.697 148.213 337.038 145.676 335.107C144.097 333.905 143.7 332.957 144.208 331.076Z" fill="white"/>
    <path d="M147.057 329.533C145.313 329.533 144.694 329.281 144.208 331.076C143.7 332.957 144.097 333.905 145.676 335.107C148.213 337.038 151 335.697 151 332.427C151 331.17 150.988 330.128 149.62 329.533C149.034 329.278 146.932 328.668 146.355 329.232C144.864 330.692 148.24 334.975 148.24 331.848" stroke="white" stroke-width="3" stroke-linecap="round"/>
    <path d="M258.172 324.227C255.061 327.413 258.978 331.871 260.309 329.163C260.824 328.114 261.371 326.797 260.662 325.67C259.675 324.1 258.172 323.398 258.172 324.625" stroke="white" stroke-width="3" stroke-linecap="round"/>
    <path d="M243 400C244.738 400 246.283 400.135 247.959 400.457C249.212 400.697 250.008 401.476 251 402" stroke="white" stroke-width="3" stroke-linecap="round"/>
    <ellipse cx="259.5" cy="326.5" rx="1.5" ry="2.5" fill="white"/>
    <path d="M159 478V487" stroke="black" stroke-width="6"/>
    <path d="M231 474L235 487" stroke="black" stroke-width="6"/>
    <path d="M43 492C28.9842 508.871 3.39641 554.091 13.1715 600" stroke="black" stroke-width="8" stroke-linecap="round"/>
    <path d="M331.92 597.872C331.849 600.08 333.582 601.927 335.79 601.998C337.998 602.069 339.845 600.336 339.916 598.128L331.92 597.872ZM304.974 502.616C309.477 507.825 316.622 520.066 322.456 536.983C328.259 553.812 332.654 574.958 331.92 597.872L339.916 598.128C340.686 574.062 336.075 551.938 330.019 534.376C323.994 516.903 316.429 503.634 311.026 497.384L304.974 502.616Z" fill="black"/>
    <path d="M250 467C250 468.1 250 471.84 250 478" stroke="black" stroke-width="7"/>
    <path d="M94 463C95.0526 470.29 100.526 485.095 114 486" stroke="black" stroke-width="8"/>
    <path d="M68.81 451.438C60.6894 450.121 43.0153 451.007 37.2831 465.085C36.686 468.556 36.6383 476.002 41.224 478.013C45.8097 480.024 43.8512 488.428 42.2988 492.378C40.1492 497.406 39.5043 509.185 54.1213 516.08C72.3926 524.699 65.2274 528.291 100.695 529.727C136.163 531.164 163.749 526.495 167.331 525.777C170.914 525.058 195.634 521.826 206.024 525.777C214.335 528.937 224.534 529.727 228.594 529.727L231.818 525.777C232.177 525.418 232.248 524.197 229.669 522.185" stroke="black" stroke-width="8"/>
    <path d="M257.946 480.002C260.155 480.032 261.97 478.265 262 476.056C262.029 473.847 260.263 472.032 258.054 472.003L257.946 480.002ZM223.845 515.103C225.568 509.098 229.461 500.032 235.404 492.595C241.36 485.14 248.892 479.881 257.946 480.002L258.054 472.003C245.515 471.835 235.882 479.181 229.154 487.601C222.413 496.038 218.101 506.116 216.155 512.896L223.845 515.103Z" fill="black"/>
    <path d="M269.822 451C282.191 453.66 307.144 467.178 308 499.971C293.252 497.915 257.405 500.043 232 525" stroke="black" stroke-width="8"/>
    <path d="M112.233 485.915L111.742 481.946L111.724 481.948L111.707 481.95L112.233 485.915ZM96.3181 478.74C94.5178 477.46 92.0205 477.882 90.7402 479.682C89.4599 481.482 89.8815 483.979 91.6819 485.26L96.3181 478.74ZM234.801 521.144C218.233 504.896 170.772 474.636 111.742 481.946L112.725 489.885C168.67 482.957 213.829 511.782 229.199 526.856L234.801 521.144ZM111.707 481.95C110.288 482.138 107.608 482.23 104.622 481.782C101.621 481.331 98.6301 480.384 96.3181 478.74L91.6819 485.26C95.3761 487.887 99.7138 489.135 103.435 489.693C107.169 490.253 110.603 490.167 112.76 489.88L111.707 481.95Z" fill="black"/>
    <path d="M197.06 206.404C193.089 197.422 190.056 177.088 209.696 167.604C234.246 155.748 250.853 187.837 250.853 194.548C250.853 198.141 253.019 210.715 240.744 227.959M66.369 247C50.1229 247 17.2697 239.456 26.6563 212.152M216.194 211.74C212.343 202.998 206.952 186.86 216.194 184.848C225.436 182.836 235.329 189.159 236.773 193.471C239.179 200.656 237.35 216.822 230.996 219.696L216.194 211.74Z" stroke="black" stroke-width="8"/>
    <path d="M44.8537 297.997C60.4253 230.68 104.689 205.22 124.874 200.905C138.692 197.788 177.284 196.23 221.116 214.929C270.137 240.82 289.962 305.46 289.962 322.45C289.962 335.834 290.803 354.814 292.485 362.725C299.983 398.11 277.827 440.279 265.812 456.941C260.165 465.332 231.064 481.178 159.838 477.438C88.6128 473.698 46.7761 440.159 34.761 423.858C17.7476 404.008 22.866 358.77 27.5519 338.632C30.8392 328.834 41.6096 309.025 44.8537 297.997Z" stroke="black" stroke-width="8"/>
    <path d="M26.694 212.004C31.3267 200.922 57.199 201.734 72.309 237.492M83 224.933C78.7236 211.142 64.6114 183.855 42.3741 185.037C20.1368 186.219 12.1257 190.117 7.80671 196.858C1.07835 209.696 4.95574 226.78 6.73743 233.798C8.35968 240.189 8.16286 251.899 27.7631 258.548C46.9731 265.065 53.0651 262.612 57.3415 262.243" stroke="black" stroke-width="8"/>
    <ellipse cx="252.5" cy="329" rx="15.5" ry="16" fill="black"/>
    <circle cx="142" cy="336" r="18" fill="black"/>
    <path d="M141.179 335.076C141.512 333.639 141.918 333.514 142.834 333.521C142.882 333.416 142.943 333.319 143.019 333.232C143.514 332.668 145.315 333.278 145.817 333.533C146.99 334.128 147 335.17 147 336.427C147 339.697 144.611 341.038 142.437 339.107C141.083 337.905 140.743 336.957 141.179 335.076Z" fill="white"/>
    <path d="M143.62 333.533C142.125 333.533 141.595 333.281 141.179 335.076C140.743 336.957 141.083 337.905 142.437 339.107C144.611 341.038 147 339.697 147 336.427C147 335.17 146.99 334.128 145.817 333.533C145.315 333.278 143.514 332.668 143.019 333.232C141.74 334.692 144.634 338.975 144.634 335.848" stroke="white" stroke-width="3" stroke-linecap="round"/>
    <path d="M252.465 327.227C248.577 330.413 253.473 334.871 255.136 332.163C255.78 331.114 256.463 329.797 255.577 328.67C254.343 327.1 252.465 326.398 252.465 327.625" stroke="white" stroke-width="3" stroke-linecap="round"/>
    <ellipse cx="253.5" cy="329.5" rx="1.5" ry="2.5" fill="white"/>
    <path d="M109.5 567.5C109.5 579.13 100.29 588.5 89 588.5C77.7098 588.5 68.5 579.13 68.5 567.5C68.5 555.87 77.7098 546.5 89 546.5C100.29 546.5 109.5 555.87 109.5 567.5Z" fill="#FFE8B2" stroke="#0076FF" stroke-width="3"/>
    <path d="M83.0521 576.4C81.5923 576.618 80.1977 576.48 78.8684 575.987C77.539 575.494 76.4021 574.644 75.4578 573.438C74.5286 572.212 73.9192 570.629 73.6295 568.688C73.3425 566.766 73.4719 565.072 74.0177 563.607C74.5786 562.122 75.429 560.931 76.5689 560.033C77.724 559.114 79.0314 558.546 80.4913 558.328C81.6128 558.16 82.6532 558.242 83.6125 558.572C84.569 558.884 85.3862 559.299 86.0641 559.816L84.3558 562.638C83.8496 562.294 83.3287 562.036 82.793 561.861C82.2725 561.665 81.7007 561.614 81.0776 561.707C80.2942 561.824 79.6064 562.154 79.0142 562.698C78.4397 563.238 78.0191 563.956 77.7523 564.852C77.5033 565.744 77.4665 566.778 77.6419 567.953C77.9076 569.733 78.4977 571.065 79.412 571.947C80.3263 572.83 81.4244 573.176 82.7062 572.984C83.4183 572.878 84.0264 572.624 84.5304 572.221C85.0523 571.815 85.4936 571.358 85.8545 570.849L88.3041 572.995C87.0994 574.922 85.3487 576.057 83.0521 576.4ZM97.7248 574.21C95.4639 574.547 93.6374 574.137 92.2453 572.98C90.8532 571.823 89.9393 569.785 89.5035 566.865L88.1085 557.518L92.0607 556.929L93.5155 566.676C93.7706 568.385 94.2068 569.539 94.824 570.138C95.4413 570.738 96.2395 570.964 97.2186 570.818C98.1978 570.672 98.9039 570.221 99.337 569.465C99.7701 568.709 99.8592 567.476 99.6041 565.767L98.1492 556.02L101.941 555.454L103.336 564.8C103.772 567.72 103.502 569.935 102.526 571.446C101.569 572.954 99.968 573.875 97.7248 574.21Z" fill="#0076FF"/>
    <path d="M214.116 406.414C214.828 417.219 231.873 423.702 236.909 423.702C240.471 423.702 241.183 423.342 244.388 422.261C251.867 417.939 260.201 403.677 252.224 398.49C244.246 393.304 236.707 393.492 233.935 394.234C226.604 394.892 213.568 398.097 214.116 406.414Z" fill="black"/>
    <path d="M234.773 394.168C234.503 394.186 234.224 394.208 233.935 394.234M233.935 394.234C226.604 394.892 213.568 398.097 214.116 406.414C214.828 417.219 231.873 423.702 236.909 423.702C240.471 423.702 241.183 423.342 244.388 422.261C251.867 417.939 260.201 403.677 252.224 398.49C244.246 393.304 236.707 393.492 233.935 394.234ZM195.597 455.397C181.707 451.435 156.81 436.149 160.339 406.414C163.544 379.401 172.447 369.316 178.146 359.232C182.419 353.109 185.901 332.062 188.118 326.456C191.679 317.452 201.794 313.562 209.486 325.375C219.102 340.142 215.154 343.513 222.308 355.27C228.006 364.634 234.772 371.477 244.388 377.6C251.867 382.362 254.717 382.282 261.127 392.007C269.455 404.64 262.552 417.939 257.21 430.545C253.699 438.829 247.95 446.393 239.046 452.876C230.62 459.011 204.856 459.359 195.597 455.397Z" stroke="black" stroke-width="6"/>
    <path d="M243 400C244.738 400 246.283 400.135 247.959 400.457C249.212 400.697 250.008 401.476 251 402" stroke="white" stroke-width="3" stroke-linecap="round"/>
    <path d="M98.769 89.5665L86 4.12692L112.1 4L98.769 89.5665Z" fill="#FF6666" stroke="#FF6666" stroke-width="6" stroke-linecap="round"/>
    <path d="M159.882 89.5665L147.113 4.12692L173.213 4L159.882 89.5665Z" fill="#FF6666" stroke="#FF6666" stroke-width="6" stroke-linecap="round"/>
    <path d="M220.995 89.5665L208.226 4.12692L234.326 4L220.995 89.5665Z" fill="#FF6666" stroke="#FF6666" stroke-width="6" stroke-linecap="round"/>
    <path d="M109.5 118C109.5 123.203 104.845 127.5 99 127.5C93.1551 127.5 88.5 123.203 88.5 118C88.5 112.797 93.1551 108.5 99 108.5C104.845 108.5 109.5 112.797 109.5 118Z" fill="#FF6666" stroke="#FF6666"/>
    <path d="M170.5 118C170.5 123.203 165.845 127.5 160 127.5C154.155 127.5 149.5 123.203 149.5 118C149.5 112.797 154.155 108.5 160 108.5C165.845 108.5 170.5 112.797 170.5 118Z" fill="#FF6666" stroke="#FF6666"/>
    <path d="M232.5 118C232.5 123.203 227.845 127.5 222 127.5C216.155 127.5 211.5 123.203 211.5 118C211.5 112.797 216.155 108.5 222 108.5C227.845 108.5 232.5 112.797 232.5 118Z" fill="#FF6666" stroke="#FF6666"/>
</svg>
