<svg width="61" height="42" viewBox="0 0 61 42" fill="none" xmlns="http://www.w3.org/2000/svg">
<rect x="0.25" y="0.25" width="43.1471" height="22.5588" rx="4.75" fill="#F7F7F7" stroke="#B7D8FF" stroke-width="0.5"/>
<path d="M40.096 5.76471H10.9742V7.49083H40.096V5.76471Z" fill="#A5A5A5"/>
<path d="M40.096 12.1279H10.9742V12.9909H40.096V12.1279Z" fill="#C4C4C4"/>
<path d="M40.096 13.6191H10.9742V14.4821H40.096V13.6191Z" fill="#C4C4C4"/>
<path d="M40.096 15.1154H10.9742V15.9784H40.096V15.1154Z" fill="#C4C4C4"/>
<path d="M40.096 16.6066H10.9742V17.4697H40.096V16.6066Z" fill="#C4C4C4"/>
<path d="M8.8909 5.76471H3.29407V6.62777H8.8909V5.76471Z" fill="#DDDDDD"/>
<path d="M8.8909 8.86459H3.29407V9.72765H8.8909V8.86459Z" fill="#DDDDDD"/>
<path d="M8.8909 11.9696H3.29407V12.8326H8.8909V11.9696Z" fill="#DDDDDD"/>
<rect x="7.66174" y="9.30884" width="43.1471" height="22.5588" rx="4.75" fill="#FCFCFC" stroke="#B7D8FF" stroke-width="0.5"/>
<path d="M47.2394 14.8235H18.1177V16.5496H47.2394V14.8235Z" fill="#A5A5A5"/>
<path d="M47.2394 21.1867H18.1177V22.0497H47.2394V21.1867Z" fill="#C4C4C4"/>
<path d="M47.2394 22.6779H18.1177V23.541H47.2394V22.6779Z" fill="#C4C4C4"/>
<path d="M47.2394 24.1691H18.1177V25.0322H47.2394V24.1691Z" fill="#C4C4C4"/>
<path d="M47.2394 25.6654H18.1177V26.5285H47.2394V25.6654Z" fill="#C4C4C4"/>
<rect x="17.5441" y="19.1912" width="43.1471" height="22.5588" rx="4.75" fill="white" stroke="#B7D8FF" stroke-width="0.5"/>
<path d="M57.0481 23.3577H27.9264V25.0838H57.0481V23.3577Z" fill="#A5A5A5"/>
<path d="M57.0481 29.7208H27.9264V30.5839H57.0481V29.7208Z" fill="#C4C4C4"/>
<path d="M57.0481 31.212H27.9264V32.0751H57.0481V31.212Z" fill="#C4C4C4"/>
<path d="M57.0481 32.7083H27.9264V33.5714H57.0481V32.7083Z" fill="#C4C4C4"/>
<path d="M57.0481 34.1996H27.9264V35.0626H57.0481V34.1996Z" fill="#C4C4C4"/>
<path d="M26.0113 23.5211H20.4144V24.3841H26.0113V23.5211Z" fill="#DDDDDD"/>
<path d="M26.0113 26.6209H20.4144V27.484H26.0113V26.6209Z" fill="#DDDDDD"/>
<path d="M26.0113 29.726H20.4144V30.589H26.0113V29.726Z" fill="#DDDDDD"/>
<path d="M15.9168 14.9824H10.3199V15.8455H15.9168V14.9824Z" fill="#DDDDDD"/>
<path d="M15.9168 18.0823H10.3199V18.9453H15.9168V18.0823Z" fill="#DDDDDD"/>
<path d="M15.9168 21.1873H10.3199V22.0503H15.9168V21.1873Z" fill="#DDDDDD"/>
</svg>
