<svg width="56" height="27" viewBox="0 0 56 27" fill="none" xmlns="http://www.w3.org/2000/svg">
<rect x="13.25" y="0.25" width="42.5" height="22.217" rx="4.75" fill="white" stroke="#B7D8FF" stroke-width="0.5"/>
<path d="M52.1648 4.35107H23.4747V6.05161H52.1648V4.35107Z" fill="#A5A5A5"/>
<path d="M52.1648 10.6199H23.4747V11.4702H52.1648V10.6199Z" fill="#C4C4C4"/>
<path d="M52.1648 12.089H23.4747V12.9393H52.1648V12.089Z" fill="#C4C4C4"/>
<path d="M52.1648 13.5631H23.4747V14.4134H52.1648V13.5631Z" fill="#C4C4C4"/>
<path d="M52.1648 15.0322H23.4747V15.8825H52.1648V15.0322Z" fill="#C4C4C4"/>
<path d="M21.588 4.51202H16.0741V5.36229H21.588V4.51202Z" fill="#DDDDDD"/>
<path d="M21.588 7.56592H16.0741V8.41618H21.588V7.56592Z" fill="#DDDDDD"/>
<path d="M21.588 10.6249H16.0741V11.4751H21.588V10.6249Z" fill="#DDDDDD"/>
<path d="M1 20.6883C2.12613 17.6853 6.18018 11.7693 13.3874 12.1297C20.5946 12.4901 24.7988 17.9856 26 20.6883" stroke="#807B7B" stroke-width="1.5" stroke-linecap="round"/>
<path fill-rule="evenodd" clip-rule="evenodd" d="M8.65771 19.3369C10.6479 19.3369 12.2613 17.7235 12.2613 15.7333C12.2613 15.3107 12.1886 14.9051 12.0549 14.5284C12.4837 14.4325 12.9296 14.382 13.3874 14.382C16.7458 14.382 19.4684 17.1046 19.4684 20.463C19.4684 23.8215 16.7458 26.5441 13.3874 26.5441C10.0289 26.5441 7.30627 23.8215 7.30627 20.463C7.30627 20.0053 7.35685 19.5594 7.45272 19.1305C7.8295 19.2642 8.23511 19.3369 8.65771 19.3369Z" fill="#807B7B"/>
</svg>
